<svg xmlns="http://www.w3.org/2000/svg" viewBox="235 688 560 172" width="560" height="172">
<defs><filter id="blur" x="-50%" y="-50%" width="200%" height="200%"><feGaussianBlur stdDeviation="18"/></filter></defs>
<ellipse cx="514" cy="675" rx="115" ry="28" fill="#36ff5f" opacity="0.55" filter="url(#blur)"/>
<path d="M 567 709 L 567 724 L 557 725 L 556 731 L 557 735 L 567 736 L 567 772 L 569 777 L 577 783 L 595 782 L 595 772 L 585 773 L 580 769 L 580 736 L 595 735 L 595 725 L 581 725 L 580 707 Z " fill="#6ec65b" fill-rule="evenodd"/>
<path d="M 682 725 L 675 729 L 666 740 L 664 759 L 667 769 L 676 779 L 685 783 L 704 783 L 713 780 L 714 768 L 701 773 L 691 773 L 686 771 L 680 765 L 678 760 L 678 746 L 686 736 L 691 734 L 704 735 L 713 740 L 714 729 L 699 723 Z " fill="#63bc55" fill-rule="evenodd"/>
<path d="M 521 724 L 514 727 L 509 732 L 507 738 L 508 747 L 513 753 L 519 756 L 539 761 L 542 765 L 542 769 L 537 773 L 528 774 L 515 771 L 508 767 L 507 777 L 515 782 L 526 784 L 546 781 L 555 771 L 555 761 L 553 757 L 543 750 L 523 745 L 520 742 L 520 738 L 525 734 L 538 734 L 552 739 L 552 729 L 536 723 Z " fill="#61bb56" fill-rule="evenodd"/>
<path d="M 485 724 L 475 723 L 464 727 L 459 732 L 458 725 L 445 725 L 445 782 L 458 782 L 458 745 L 464 737 L 473 734 L 479 736 L 484 744 L 484 782 L 497 782 L 497 739 L 494 731 Z " fill="#61bf56" fill-rule="evenodd"/>
<path d="M 725 700 L 724 782 L 738 782 L 738 764 L 745 757 L 763 782 L 777 782 L 754 748 L 776 725 L 760 725 L 739 747 L 738 701 Z " fill="#6ac158" fill-rule="evenodd"/>
<path d="M 332 728 L 325 735 L 320 749 L 321 764 L 325 772 L 332 779 L 341 783 L 361 783 L 372 779 L 371 768 L 363 772 L 350 774 L 341 771 L 336 766 L 334 761 L 335 757 L 376 757 L 375 742 L 371 734 L 366 728 L 353 723 L 340 724 Z M 334 745 L 340 736 L 344 734 L 354 734 L 360 738 L 363 747 L 335 748 Z " fill="#62be57" fill-rule="evenodd"/>
<path d="M 386 728 L 387 738 L 403 734 L 412 734 L 419 739 L 420 746 L 398 748 L 388 752 L 382 760 L 382 771 L 384 776 L 389 781 L 399 784 L 412 782 L 419 776 L 421 777 L 421 782 L 433 782 L 433 741 L 429 731 L 421 725 L 412 723 L 397 724 Z M 394 766 L 396 760 L 401 757 L 420 757 L 420 765 L 412 773 L 401 774 L 395 769 Z " fill="#5fbd56" fill-rule="evenodd"/>
<path d="M 624 723 L 612 727 L 605 733 L 599 748 L 599 758 L 601 767 L 609 778 L 619 783 L 629 784 L 642 781 L 650 775 L 656 764 L 657 750 L 653 737 L 645 728 L 637 724 Z M 624 734 L 632 734 L 636 736 L 641 741 L 643 747 L 643 759 L 641 766 L 635 772 L 629 774 L 623 773 L 617 769 L 612 755 L 615 741 L 618 737 Z " fill="#66c35a" fill-rule="evenodd"/>
<path d="M 250 700 L 249 782 L 294 782 L 304 778 L 310 772 L 313 765 L 312 750 L 310 746 L 301 739 L 308 733 L 311 725 L 311 718 L 307 709 L 297 702 L 288 700 Z M 262 747 L 293 747 L 299 753 L 299 764 L 294 769 L 287 771 L 264 771 Z M 263 713 L 291 713 L 296 718 L 296 728 L 289 734 L 264 734 Z " fill="#74cd5b" fill-rule="evenodd"/>
<path d="M 559 810 L 558 844 L 566 844 L 567 810 Z " fill="#ffffff" fill-rule="evenodd"/>
<path d="M 343 810 L 343 815 L 357 817 L 357 844 L 365 844 L 365 817 L 377 816 L 378 810 Z " fill="#ffffff" fill-rule="evenodd"/>
<path d="M 647 814 L 643 820 L 643 833 L 650 842 L 658 845 L 670 845 L 681 840 L 681 825 L 663 825 L 663 830 L 671 830 L 673 833 L 673 836 L 669 838 L 658 838 L 652 833 L 651 824 L 655 817 L 668 815 L 676 818 L 679 814 L 678 812 L 671 809 L 656 809 Z " fill="#ffffff" fill-rule="evenodd"/>
<path d="M 444 843 L 453 844 L 457 837 L 474 837 L 478 844 L 487 844 L 470 810 L 460 811 Z M 465 819 L 468 822 L 472 830 L 471 831 L 460 830 Z " fill="#ffffff" fill-rule="evenodd"/>
<path d="M 587 810 L 587 844 L 595 844 L 596 822 L 616 844 L 624 844 L 624 810 L 616 810 L 615 832 L 595 810 Z " fill="#ffffff" fill-rule="evenodd"/>
<path d="M 395 810 L 395 844 L 403 844 L 404 832 L 413 832 L 421 844 L 430 844 L 422 832 L 428 827 L 430 821 L 426 812 L 422 810 Z M 403 817 L 409 815 L 418 816 L 421 819 L 421 822 L 418 825 L 404 825 Z " fill="#ffffff" fill-rule="evenodd"/>
<path d="M 503 810 L 503 844 L 526 844 L 536 839 L 539 834 L 540 823 L 534 813 L 528 810 Z M 511 817 L 527 817 L 531 822 L 530 833 L 525 837 L 512 838 Z " fill="#ffffff" fill-rule="evenodd"/>
</svg>
