<svg width="50" height="50" viewBox="0 0 50 50" fill="none" xmlns="http://www.w3.org/2000/svg">
<path d="M37.9775 5.13428C37.8525 5.31865 36.9064 6.21509 36.6768 6.44776C35.8658 7.26287 35.0776 8.10128 34.3135 8.96045C33.2842 10.1185 32.304 11.3192 31.375 12.5591C29.4489 15.1293 27.5732 18.0423 26.5889 21.1753C25.6382 21.8364 24.3607 21.8332 23.4131 21.1616C21.964 16.604 18.3472 11.9126 15.4141 8.65186C14.692 7.8504 13.951 7.06619 13.1914 6.30029C12.9464 6.05592 12.6979 5.81513 12.4463 5.57764C12.3129 5.45064 12.1012 5.27011 12 5.12451L12 5.11279C12.267 4.84264 13.024 3.95227 13.2568 3.77393C13.5931 4.05189 13.898 4.36043 14.209 4.66651C14.773 5.21604 15.3207 5.78208 15.8525 6.36279C17.5725 8.21595 19.2082 10.1156 20.6816 12.1733C21.0289 12.6583 21.3486 13.1493 21.6826 13.6421C21.7527 13.7763 21.8337 13.8705 21.9268 13.9888C21.8767 13.8579 21.8206 13.7314 21.7647 13.603C21.6621 13.2686 21.4844 12.8099 21.3604 12.4751C21.0902 11.7403 20.8081 11.0095 20.5147 10.2837C19.8248 8.5557 19.0772 6.85083 18.2744 5.17236C17.8564 4.27363 17.4143 3.38603 16.9482 2.51123C17.1567 2.38381 18.4396 1.65697 18.5879 1.68799C18.7707 1.82112 19.2154 2.79324 19.3398 3.04248C20.708 5.79768 21.9326 8.62191 23.0098 11.5034C23.39 12.5268 23.8859 13.8489 24.1592 14.898C24.1941 13.3967 24.1594 11.7418 24.1592 10.2271L24.1582 0.846193L25.9932 0.846193C26.0282 3.52995 25.9974 6.27837 25.9971 8.96631L25.9971 12.1597C25.9969 12.895 26.0078 13.6515 25.9707 14.3843C26.1107 14.0565 26.2827 13.4747 26.4043 13.1177C26.6519 12.3993 26.91 11.6845 27.1797 10.9741C28.174 8.37504 29.2881 5.82307 30.5176 3.32666C30.6584 3.04224 31.2372 1.82108 31.4063 1.64307C31.6738 1.767 32.8316 2.36379 33.0313 2.51807C31.8186 4.86715 30.7084 7.26793 29.7041 9.71338C29.1134 11.1636 28.6263 12.5469 28.0703 13.9976C28.2581 13.7439 28.4241 13.4657 28.5996 13.2017C28.8865 12.7768 29.1799 12.356 29.4795 11.9399C31.2002 9.59841 33.0897 7.385 35.1328 5.31885C35.6019 4.84786 36.2412 4.17224 36.7373 3.77002C37.1643 4.17262 37.564 4.6842 37.9912 5.11475L37.9775 5.13428ZM37.5186 45.7905C37.3021 46.0264 36.9233 46.3776 36.7471 46.6255C34.7524 44.7098 32.8883 42.6621 31.168 40.4966C30.7576 39.9828 30.3622 39.5086 29.9697 38.979C29.53 38.3839 29.1018 37.7791 28.6865 37.1665C28.4988 36.8869 28.3288 36.5987 28.1387 36.3198C28.5796 37.6961 29.2826 39.4216 29.8369 40.7505C30.7937 43.0443 31.8768 45.5337 33.0518 47.7222C32.5757 48.025 31.9051 48.3016 31.4004 48.6187C31.2286 48.3472 31.038 47.9462 30.8906 47.6509C30.5822 47.0345 30.283 46.413 29.9932 45.7876C28.4359 42.5204 27.0928 39.1552 25.9727 35.7134C26.0308 36.8937 25.9969 38.2903 25.9971 39.4897L25.9971 48.061C25.997 48.4329 25.9863 48.8762 26.0068 49.2417C25.4732 49.2365 24.6783 49.2146 24.1582 49.2505C24.1949 45.7399 24.1591 42.1598 24.1592 38.6431C24.1543 37.5031 24.1551 36.3629 24.1621 35.2231C23.7495 36.7785 22.9838 38.7656 22.3818 40.269C21.5927 42.2804 20.7302 44.2623 19.7959 46.2105C19.5336 46.7556 19.2892 47.3088 19.0068 47.8462C18.8776 48.0923 18.7558 48.3677 18.6045 48.6001C18.3164 48.4592 17.1848 47.8962 16.9961 47.7349C17.0095 47.5548 18.2294 45.1346 18.4326 44.6938C19.7087 41.9558 20.8527 39.1576 21.8613 36.3101C21.6794 36.5649 21.4805 36.9051 21.2969 37.1772C20.8196 37.8902 20.3221 38.5892 19.8057 39.2739C19.4946 39.6842 19.1487 40.1 18.8252 40.5034C17.8244 41.7523 16.7829 42.9677 15.7012 44.147C14.8936 45.0133 14.0984 45.7942 13.2744 46.6313C12.9281 46.2395 12.3027 45.6501 12 45.2661L12 45.2378C12.5092 44.6904 13.0575 44.1758 13.5811 43.6421C13.9727 43.2427 14.3502 42.8191 14.7266 42.4048C17.9922 38.8088 21.8694 33.8523 23.4121 28.9272C24.3645 28.2521 25.6513 28.2521 26.6035 28.9233C28.1013 33.6574 31.3518 37.9599 34.5537 41.6118C35.3181 42.4916 36.1122 43.3456 36.9336 44.1724C37.2597 44.5028 37.658 44.9192 38 45.2251L38 45.2603C37.85 45.4126 37.6688 45.6268 37.5186 45.7905Z" fill="white" fill-opacity="0.6" style="fill:white;fill-opacity:0.6;"/>
<path d="M21.2422 18.9199C20.6809 18.4774 20.0085 18.2024 19.3184 18.1592C18.8061 18.1271 18.2922 18.2267 17.8301 18.4688C17.739 18.3975 17.6475 18.3294 17.5557 18.2646C16.8348 17.7562 16.2111 17.5381 15.6875 17.5381C14.6135 17.5382 13.8092 18.1252 13.1719 19.5674C12.5118 21.0612 12.2315 23.1254 12.2314 25.1152C12.2314 27.11 12.5056 29.1735 13.1621 30.666C13.7936 32.1015 14.5956 32.6923 15.6875 32.6924C16.2125 32.6924 16.8366 32.4723 17.5576 31.9561C17.6785 31.8695 17.7976 31.7755 17.917 31.6777C18.3555 31.8871 18.8365 31.9729 19.3164 31.9434C19.992 31.9018 20.6501 31.6372 21.2051 31.2109C21.1157 31.3681 21.021 31.5371 20.917 31.7139C20.2502 32.8471 19.2834 34.3635 18.085 35.8848C16.8898 37.4019 15.4419 38.9522 13.8096 40.1299C12.1796 41.3059 10.3043 42.1533 8.27344 42.1533C7.68996 42.1533 7.09913 41.9279 6.60059 41.625C6.08932 41.3143 5.59837 40.8765 5.21582 40.3506L6.70899 39.2646C6.94172 39.5846 7.24815 39.8586 7.55957 40.0479C7.88378 40.2448 8.141 40.3076 8.27344 40.3076C9.78225 40.3076 11.2841 39.6757 12.7295 38.6328C13.1004 38.3652 13.4641 38.0731 13.8184 37.7627C13.311 37.9153 12.7913 38 12.2627 38L12.1973 38C6.64649 37.9448 4.92383 30.8619 4.92383 25.1152C4.92385 19.3686 6.68523 12.2867 12.1973 12.2314L12.2627 12.2305C12.8059 12.2305 13.3406 12.3193 13.8623 12.4795C13.489 12.1545 13.1054 11.8496 12.7139 11.5713C11.2702 10.5451 9.77279 9.92285 8.27344 9.92285C7.97708 9.92285 7.84695 9.93034 7.68946 9.99609C7.52667 10.0641 7.24837 10.2373 6.8252 10.7451L5.40625 9.5625C5.94444 8.91668 6.45035 8.51251 6.97852 8.29199C7.51186 8.0694 7.97998 8.07715 8.27344 8.07715C10.2887 8.07715 12.1562 8.90996 13.7832 10.0664C15.4128 11.2248 16.862 12.7505 18.0605 14.2432C19.2623 15.7398 20.2344 17.2317 20.9053 18.3467C21.0279 18.5505 21.1397 18.7428 21.2422 18.9199ZM15.7725 15.6934C15.5586 15.5123 15.342 15.3418 15.123 15.1846C14.0909 14.4433 13.132 14.0773 12.2627 14.0771C10.4787 14.0772 9.15921 15.141 8.18653 17.2754C7.19821 19.4443 6.76954 22.3727 6.76953 25.1152C6.76953 27.8625 7.18949 30.7906 8.17285 32.958C9.13834 35.0859 10.4559 36.1533 12.2627 36.1533C13.1358 36.1532 14.096 35.7822 15.1289 35.0293C15.3381 34.8768 15.5455 34.7127 15.75 34.5381C15.7293 34.5384 15.7082 34.5381 15.6875 34.5381C11.5161 34.5378 10.3848 29.3344 10.3848 25.1152C10.3848 20.8961 11.5456 15.6926 15.6875 15.6924C15.7158 15.6924 15.7443 15.6927 15.7725 15.6934ZM45.0771 25.1738C45.0496 30.8957 43.2725 37.868 37.8037 37.9229L37.7383 37.9229C37.1952 37.9228 36.6613 37.8339 36.1396 37.6738C36.5128 37.9987 36.8957 38.3038 37.2871 38.582C38.7308 39.6082 40.2282 40.2305 41.7275 40.2305C42.0238 40.2305 42.154 40.224 42.3115 40.1582C42.4743 40.0902 42.7526 39.917 43.1758 39.4092L44.5938 40.5908C44.0556 41.2365 43.5506 41.6408 43.0225 41.8613C42.4891 42.084 42.021 42.0772 41.7275 42.0772C39.7122 42.0771 37.8448 41.2434 36.2178 40.0869C34.5882 38.9286 33.139 37.4038 31.9404 35.9111C30.7386 34.4143 29.7666 32.9217 29.0957 31.8066C28.9489 31.5627 28.817 31.3359 28.6992 31.1309C29.2674 31.5919 29.9544 31.8942 30.6572 31.9697C31.1828 32.0262 31.7264 31.9527 32.2197 31.7217C32.2949 31.7795 32.3697 31.8363 32.4453 31.8897C33.1662 32.3981 33.7899 32.6152 34.3135 32.6152C35.3875 32.6151 36.1918 32.0283 36.8291 30.5859C37.4892 29.0921 37.7695 27.028 37.7695 25.0381C37.7695 23.0435 37.4952 20.9806 36.8389 19.4883C36.2074 18.0527 35.4054 17.4621 34.3135 17.4619C33.7885 17.4619 33.1644 17.681 32.4434 18.1973C32.3503 18.2639 32.2582 18.3348 32.166 18.4082C31.6874 18.2017 31.1654 18.1374 30.6611 18.1885C30.0084 18.2547 29.3653 18.5106 28.8154 18.9082C28.8993 18.7611 28.9876 18.6033 29.084 18.4395C29.7508 17.3062 30.7176 15.7897 31.916 14.2686C33.1112 12.7514 34.559 11.2012 36.1914 10.0234C37.8213 8.84754 39.6968 8.00001 41.7275 8C42.311 8.00002 42.9019 8.22542 43.4004 8.52832C43.9116 8.83897 44.4026 9.27685 44.7852 9.80274L43.292 10.8887C43.0593 10.5688 42.7527 10.2956 42.4414 10.1064C42.1171 9.90943 41.86 9.84573 41.7275 9.84571C40.2188 9.84571 38.7168 10.4778 37.2715 11.5205C36.9006 11.7881 36.5368 12.0802 36.1826 12.3906C36.6899 12.2381 37.2097 12.1534 37.7383 12.1533L37.8037 12.1543C43.3544 12.2095 45.0771 19.2914 45.0771 25.0381L45.0771 25.1738ZM43.2314 25.0381C43.2314 22.2908 42.8115 19.3627 41.8281 17.1953C40.8626 15.0675 39.5451 14 37.7383 14C36.8652 14.0001 35.905 14.3712 34.8721 15.124C34.6628 15.2765 34.4555 15.4415 34.251 15.6162C34.2716 15.6159 34.2928 15.6152 34.3135 15.6152C38.4847 15.6155 39.6162 20.819 39.6162 25.0381L39.6152 25.2373C39.579 29.4193 38.3905 34.4616 34.3135 34.4619C34.2853 34.4619 34.2567 34.4616 34.2285 34.4609C34.4423 34.6419 34.6591 34.8116 34.8779 34.9688C35.9102 35.71 36.869 36.077 37.7383 36.0772C39.5222 36.0771 40.8418 35.0132 41.8145 32.8789C42.8029 30.71 43.2314 27.7808 43.2314 25.0381Z" fill="white" style="fill:white;fill-opacity:1;"/>
<path d="M34.8467 25.0448C34.8467 27.7691 34.1661 29.587 33.2936 30.8172C32.6319 31.7502 31.6144 32.0725 30.6578 31.9697C29.7277 31.8698 28.824 31.3749 28.1887 30.6367L27.1098 29.383C26.0126 28.1081 24.0416 28.0977 22.931 29.3609L21.7559 30.6976C21.1183 31.4227 20.233 31.8874 19.3167 31.9437C18.3718 32.0018 17.4211 31.6169 16.8035 30.7104C15.9429 29.4472 15.1544 27.5875 15.1544 25.0448C15.1544 22.4863 15.9527 20.6274 16.821 19.3719C17.4391 18.4781 18.3826 18.101 19.3189 18.1597C20.2268 18.2166 21.1034 18.6751 21.7378 19.3878L22.9425 20.7411C24.0518 21.9872 26.0028 21.9768 27.0988 20.7191L28.1383 19.5261C28.7893 18.779 29.7156 18.2844 30.662 18.1886C31.6327 18.0902 32.6688 18.418 33.336 19.3687C34.1901 20.5856 34.8467 22.3691 34.8467 25.0448ZM33.0005 25.0448C33.0005 22.6866 32.4278 21.2883 31.8249 20.4293C31.6068 20.1185 31.2759 19.982 30.848 20.0253C30.3957 20.0711 29.8916 20.3241 29.5301 20.739L28.4907 21.9319C26.6641 24.0282 23.4123 24.0454 21.5636 21.9686L20.3589 20.6152C20.0125 20.2261 19.5746 20.0255 19.2034 20.0023C18.8606 19.9808 18.5604 20.1024 18.3394 20.422C17.664 21.3986 17.0005 22.8961 17.0005 25.0448C17.0005 27.181 17.6563 28.6833 18.3292 29.671C18.5521 29.9981 18.8566 30.1224 19.2034 30.101C19.5786 30.078 20.0213 29.8745 20.3694 29.4786L21.5445 28.1419C23.3955 26.0366 26.6805 26.0539 28.5091 28.1787L29.588 29.4325C29.94 29.8414 30.4247 30.088 30.855 30.1342C31.2589 30.1775 31.5739 30.0506 31.7877 29.7492C32.4068 28.8762 33.0005 27.4457 33.0005 25.0448Z" fill="white" style="fill:white;fill-opacity:1;"/>
<circle cx="25" cy="25" r="24.0769" transform="rotate(90 25 25)" stroke="white" style="stroke:white;stroke-opacity:1;" stroke-width="1.84615"/>
</svg>
