<svg preserveAspectRatio="xMidYMid meet" overflow="visible" style="display: block;" viewBox="0 0 2566.88 650" fill="none" xmlns="http://www.w3.org/2000/svg">
<g id="Group 18">
<g id="Group 17">
<path id="Subtract" opacity="0.7" d="M496.526 600.848C475.88 591.445 457.326 573.76 441.332 553.772C425.209 533.623 410.961 510.206 399.18 488.147C387.375 466.046 377.905 445.04 371.39 429.575C368.128 421.834 365.598 415.46 363.877 411.005C363.016 408.777 362.357 407.028 361.91 405.825C361.772 405.454 361.656 405.135 361.559 404.87L361.925 407.627C361.935 407.683 361.948 407.748 361.962 407.82C362.023 408.144 362.115 408.631 362.238 409.272C362.484 410.552 362.851 412.447 363.335 414.876C364.302 419.736 365.733 426.735 367.578 435.256C371.271 452.311 376.613 475.403 383.215 499.612C389.83 523.87 397.643 549.003 406.246 570.235C415.073 592.02 423.999 607.782 432.071 615.12L415.929 632.88C403.469 621.554 392.887 601.175 384.003 579.248C374.895 556.769 366.794 530.619 360.061 505.927C353.314 481.187 347.874 457.66 344.122 440.336C342.245 431.667 340.787 424.536 339.797 419.563C339.302 417.076 338.924 415.127 338.668 413.795C338.54 413.129 338.443 412.617 338.377 412.269C338.344 412.095 338.32 411.961 338.303 411.87C338.294 411.825 338.288 411.789 338.283 411.765C338.281 411.753 338.279 411.743 338.277 411.736C338.277 411.733 338.276 411.728 338.276 411.728C338.287 411.723 338.642 411.656 349.914 409.564L338.275 411.724L338.22 411.422L338.179 411.118L337 402.259L337 640L313 640L313 412.978C312.786 414.104 312.527 415.459 312.223 417.023C311.239 422.084 309.79 429.341 307.922 438.161C304.189 455.79 298.771 479.726 292.04 504.891C285.322 530.007 277.232 556.596 268.117 579.436C259.227 601.711 248.625 622.397 236.1 633.855L219.9 616.146C228.022 608.717 236.984 592.697 245.826 570.54C254.444 548.947 262.253 523.374 268.855 498.689C275.445 474.054 280.766 450.55 284.442 433.189C286.279 424.516 287.702 417.39 288.664 412.442C289.145 409.969 289.511 408.041 289.755 406.736C289.877 406.084 289.969 405.588 290.029 405.258C290.046 405.169 290.06 405.091 290.072 405.026L291.15 396.924L288.582 402.259C288.469 402.574 288.314 403.002 288.119 403.536C287.675 404.753 287.021 406.524 286.166 408.778C284.456 413.287 281.94 419.738 278.695 427.572C272.212 443.224 262.782 464.484 251.005 486.853C239.251 509.177 225.018 532.877 208.878 553.268C192.868 573.495 174.262 591.394 153.5 600.909L143.5 579.091C159.258 571.869 175.036 557.353 190.06 538.372C204.953 519.556 218.405 497.255 229.769 475.672C241.109 454.132 250.232 433.576 256.522 418.389C256.856 417.584 257.181 416.795 257.498 416.021C267.068 413.903 276.026 408.453 282.819 400.727L298.097 383.35C312.534 366.928 338.157 367.063 352.42 383.637L366.446 399.936C373.138 407.712 382.123 413.411 391.725 415.984C392.291 417.353 392.884 418.779 393.507 420.257C399.828 435.259 408.986 455.564 420.35 476.841C431.737 498.161 445.198 520.191 460.071 538.778C475.073 557.527 490.802 571.869 506.474 579.006L496.526 600.848ZM502.999 71.9092C487.271 79.1175 471.724 93.5431 457.047 112.396C442.492 131.091 429.481 153.242 418.556 174.686C407.653 196.085 398.967 216.503 393.004 231.588C391.821 234.581 390.747 237.361 389.785 239.893C380.694 242.652 372.212 248.129 365.791 255.498L352.277 271.006C338.03 287.357 312.666 287.491 298.246 271.292L282.585 253.699C276.548 246.917 268.822 241.909 260.485 239.42C259.321 236.534 257.987 233.289 256.493 229.743C250.172 214.741 241.014 194.436 229.65 173.159C218.263 151.839 204.802 129.809 189.929 111.222C174.927 92.4731 159.198 78.1313 143.526 70.9941L153.474 49.1524C174.12 58.5549 192.674 76.2399 208.668 96.2275C224.791 116.376 239.039 139.794 250.82 161.853C262.625 183.954 272.095 204.96 278.61 220.425C281.872 228.166 284.402 234.54 286.123 238.995C286.984 241.223 287.643 242.972 288.09 244.175C288.291 244.717 288.45 245.148 288.564 245.462L291.221 250.978L290.075 242.373C290.065 242.317 290.052 242.252 290.038 242.18C289.977 241.856 289.885 241.369 289.762 240.729C289.516 239.448 289.149 237.553 288.665 235.124C287.698 230.264 286.267 223.265 284.422 214.744C280.729 197.689 275.387 174.597 268.785 150.388C262.17 126.13 254.357 100.997 245.754 79.7647C236.927 57.9799 228.001 42.218 219.929 34.8799L236.071 17.1201C248.531 28.4462 259.113 48.8253 267.997 70.752C277.105 93.231 285.206 119.381 291.939 144.073C298.686 168.813 304.126 192.34 307.878 209.664C309.755 218.333 311.213 225.464 312.203 230.438C312.516 232.011 312.782 233.369 313 234.491L313 10L337 10L337 250.365L338.216 241.228L338.266 240.952L350.074 243.089C338.291 240.956 338.266 240.95 338.267 240.947C338.267 240.947 338.268 240.943 338.269 240.939C338.27 240.933 338.271 240.923 338.273 240.91C338.278 240.885 338.285 240.85 338.293 240.804C338.31 240.711 338.335 240.576 338.367 240.398C338.432 240.044 338.528 239.523 338.655 238.846C338.909 237.49 339.285 235.507 339.777 232.977C340.761 227.916 342.21 220.659 344.078 211.839C347.811 194.21 353.229 170.274 359.96 145.109C366.678 119.993 374.768 93.404 383.883 70.5645C392.773 48.2891 403.375 27.6034 415.9 16.1455L432.1 33.8545C423.978 41.2835 415.016 57.3026 406.174 79.46C397.556 101.053 389.747 126.626 383.145 151.311C376.555 175.946 371.234 199.45 367.558 216.811C365.721 225.484 364.298 232.61 363.336 237.558C362.855 240.031 362.489 241.959 362.245 243.264C362.123 243.916 362.031 244.412 361.971 244.742C361.954 244.831 361.94 244.909 361.928 244.974L361.658 247.002C361.694 246.897 361.731 246.787 361.771 246.673C362.188 245.462 362.805 243.701 363.612 241.458C365.226 236.973 367.604 230.557 370.685 222.765C376.838 207.198 385.83 186.049 397.171 163.79C408.489 141.576 422.287 117.977 438.109 97.6524C453.81 77.485 472.208 59.6198 493 50.0908L502.999 71.9092ZM301.926 406.911C309.058 408.202 311.882 408.716 313 408.92L313 408.915L301.926 406.911ZM302.086 240.436L313 238.411L313 238.407C311.897 238.613 309.113 239.132 302.086 240.436Z" fill="var(--fill-0, white)" style="fill:white;fill-opacity:1;"/>
<path id="Subtract_2" d="M279.157 250.207C271.319 242.952 261.383 238.377 251.139 237.734C245.23 237.364 239.298 238.328 233.839 240.749C231.978 239.213 230.102 237.771 228.215 236.439C218.843 229.829 210.742 227 203.936 227C189.971 227 179.513 234.628 171.227 253.381C162.645 272.801 159 299.631 159 325.5C159 351.432 162.565 378.254 171.1 397.656C179.31 416.321 189.738 424 203.936 424C210.76 424 218.865 421.141 228.238 414.43C229.129 413.792 230.016 413.129 230.901 412.443C237.123 415.923 244.128 417.356 251.11 416.927C258.87 416.45 266.457 413.719 273.096 409.269C272.711 409.929 272.32 410.6 271.919 411.281C263.25 426.014 250.674 445.727 235.093 465.505C219.555 485.228 200.743 505.383 179.522 520.693C158.333 535.981 133.95 547 107.549 547C99.9636 547 92.2838 544.069 85.8027 540.131C79.1545 536.091 72.7691 530.398 67.7949 523.559L87.2051 509.442C90.2308 513.603 94.2166 517.16 98.2656 519.62C102.482 522.182 105.827 523 107.549 523C127.164 523 146.69 514.788 165.48 501.23C170.303 497.751 175.023 493.956 179.628 489.92C173.031 491.904 166.277 493 159.403 493L158.553 492.996C86.3927 492.278 64 400.207 64 325.5C64 250.793 86.9016 158.722 158.559 158.004L159.403 158C166.467 158 173.414 159.154 180.198 161.237C175.346 157.012 170.366 153.046 165.275 149.428C146.508 136.087 127.041 128 107.549 128C103.696 128 102.006 128.093 99.959 128.948C97.8431 129.832 94.2219 132.079 88.7188 138.683L70.2813 123.318C77.2778 114.922 83.8466 109.668 90.7129 106.802C97.6478 103.906 103.733 104 107.549 104C133.749 104 158.029 114.831 179.181 129.866C200.365 144.925 219.2 164.752 234.781 184.157C250.406 203.616 263.045 223.011 271.768 237.507C274.667 242.326 277.141 246.617 279.157 250.207ZM205.038 203.013C202.257 200.659 199.44 198.445 196.593 196.4C183.172 186.763 170.706 182 159.403 182C136.211 182 119.065 195.83 106.42 223.577C93.5706 251.773 88 289.845 88 325.5C88 361.216 93.4592 399.281 106.244 427.458C118.795 455.12 135.915 469 159.403 469C170.755 469 183.241 464.176 196.672 454.387C199.392 452.404 202.084 450.263 204.742 447.992C204.474 447.997 204.205 448 203.936 448C149.705 448 135 380.351 135 325.5L135.011 322.92C135.481 268.552 150.928 203 203.936 203C204.304 203 204.671 203.004 205.038 203.013ZM585.996 326.261C585.638 400.646 562.536 491.284 491.441 491.996L490.597 492C483.533 492 476.588 490.846 469.804 488.763C474.656 492.988 479.635 496.954 484.725 500.572C503.492 513.913 522.959 522 542.451 522C546.304 522 547.994 521.907 550.041 521.052C552.157 520.168 555.778 517.921 561.281 511.317L579.719 526.682C572.722 535.078 566.153 540.332 559.287 543.198C552.352 546.094 546.267 546 542.451 546C516.251 546 491.971 535.169 470.819 520.134C449.635 505.075 430.8 485.248 415.219 465.843C399.594 446.384 386.955 426.989 378.232 412.493C377.396 411.104 376.599 409.757 375.834 408.459C382.639 413.273 390.516 416.402 398.545 417.265C406.137 418.08 414.025 416.835 420.976 412.981C421.245 413.177 421.515 413.37 421.785 413.561C431.157 420.171 439.258 423 446.064 423C460.029 423 470.487 415.372 478.773 396.619C487.355 377.199 491 350.369 491 324.5C491 298.568 487.435 271.746 478.9 252.344C470.69 233.679 460.262 226 446.064 226C439.24 226 431.135 228.859 421.762 235.57C419.814 236.965 417.878 238.48 415.96 240.097C410.357 238.104 404.389 237.523 398.599 238.109C389.008 239.081 379.575 243.203 371.873 249.575C373.647 246.381 375.721 242.729 378.081 238.719C386.75 223.986 399.326 204.273 414.907 184.495C430.445 164.773 449.257 144.617 470.478 129.307C491.667 114.019 516.05 103 542.451 103C550.036 103 557.716 105.931 564.197 109.869C570.846 113.909 577.231 119.602 582.205 126.441L562.795 140.558C559.769 136.397 555.783 132.84 551.734 130.38C547.518 127.818 544.173 127 542.451 127C522.836 127 503.31 135.212 484.52 148.77C479.697 152.249 474.977 156.044 470.372 160.08C476.969 158.096 483.723 157 490.597 157L491.447 157.004C563.607 157.722 586 249.793 586 324.5L585.996 326.261ZM562 324.5C562 288.784 556.541 250.719 543.756 222.542C531.205 194.88 514.085 181 490.597 181C479.245 181 466.759 185.824 453.328 195.613C450.608 197.596 447.917 199.736 445.259 202.007C445.527 202.002 445.796 202 446.064 202C500.295 202 515 269.649 515 324.5L514.989 327.08C514.52 381.448 499.072 447 446.064 447C445.697 447 445.33 446.996 444.964 446.987C447.744 449.341 450.561 451.555 453.407 453.6C466.828 463.237 479.294 468 490.597 468C513.789 468 530.935 454.17 543.58 426.423C556.429 398.227 562 360.155 562 324.5Z" fill="var(--fill-0, white)" style="fill:white;fill-opacity:1;"/>
<circle id="Ellipse 5" cx="325" cy="325" r="313" transform="rotate(90 325 325)" stroke="var(--stroke-0, white)" style="stroke:white;stroke-opacity:1;" stroke-width="24"/>
<path id="Vector 22 (Stroke)" d="M453 327.24C453 362.657 444.153 386.289 432.811 402.281C424.208 414.411 410.98 418.6 398.545 417.265C386.453 415.966 374.705 409.532 366.446 399.936L352.42 383.637C338.157 367.064 312.534 366.928 298.097 383.35L282.819 400.727C274.532 410.153 263.022 416.194 251.11 416.927C238.827 417.682 226.467 412.678 218.438 400.894C207.251 384.472 197 360.296 197 327.24C197 293.98 207.378 269.814 218.666 253.492C226.701 241.874 238.968 236.972 251.139 237.734C262.942 238.474 274.338 244.434 282.585 253.699L298.246 271.292C312.666 287.491 338.03 287.357 352.277 271.006L365.791 255.498C374.254 245.786 386.297 239.355 398.599 238.109C411.218 236.831 424.687 241.093 433.361 253.451C444.465 269.271 453 292.456 453 327.24ZM429 327.24C429 296.584 421.555 278.407 413.717 267.239C410.881 263.199 406.58 261.424 401.018 261.987C395.137 262.583 388.584 265.872 383.885 271.265L370.372 286.773C346.626 314.024 304.353 314.249 280.319 287.25L264.659 269.656C260.155 264.597 254.463 261.99 249.638 261.688C245.181 261.408 241.279 262.989 238.405 267.144C229.625 279.84 221 299.307 221 327.24C221 355.011 229.525 374.542 238.272 387.381C241.17 391.634 245.13 393.249 249.637 392.972C254.516 392.672 260.27 390.027 264.795 384.88L280.072 367.503C304.135 340.134 346.84 340.359 370.611 367.982L384.638 384.28C389.213 389.597 395.514 392.802 401.108 393.402C406.359 393.966 410.454 392.316 413.233 388.398C421.282 377.049 429 358.453 429 327.24Z" fill="var(--fill-0, white)" style="fill:white;fill-opacity:1;"/>
</g>
<g id="Vector">
<path d="M2469.93 422.047C2455.1 422.047 2442.2 418.395 2431.24 411.09C2420.4 403.675 2411.99 393.105 2406.01 379.381C2400.14 365.657 2397.21 349.387 2397.21 330.572V330.406C2397.21 311.48 2400.2 295.211 2406.18 281.598C2412.15 267.874 2420.56 257.359 2431.41 250.055C2442.26 242.639 2455.04 238.932 2469.76 238.932C2478.17 238.932 2485.86 240.315 2492.84 243.082C2499.92 245.738 2506.17 249.612 2511.6 254.703C2517.02 259.684 2521.39 265.716 2524.71 272.799H2525.71V179H2566.88V418.561H2525.71V388.678H2524.71C2521.5 395.65 2517.18 401.627 2511.76 406.607C2506.45 411.477 2500.25 415.296 2493.17 418.063C2486.2 420.719 2478.45 422.047 2469.93 422.047ZM2482.38 387.35C2490.9 387.35 2498.43 385.025 2504.96 380.377C2511.49 375.729 2516.58 369.143 2520.23 360.621C2523.88 352.099 2525.71 342.083 2525.71 330.572V330.406C2525.71 318.896 2523.83 308.935 2520.06 300.523C2516.41 292.001 2511.32 285.416 2504.79 280.768C2498.37 276.119 2490.9 273.795 2482.38 273.795C2473.52 273.795 2465.83 276.119 2459.3 280.768C2452.88 285.305 2447.9 291.78 2444.36 300.191C2440.93 308.603 2439.21 318.675 2439.21 330.406V330.572C2439.21 342.193 2440.93 352.265 2444.36 360.787C2447.9 369.309 2452.88 375.895 2459.3 380.543C2465.83 385.081 2473.52 387.35 2482.38 387.35Z" fill="var(--fill-0, white)" style="fill:white;fill-opacity:1;"/>
<path d="M2305.4 422.047C2287.8 422.047 2272.64 418.339 2259.91 410.924C2247.29 403.508 2237.61 392.994 2230.86 379.381C2224.11 365.768 2220.73 349.664 2220.73 331.07V330.904C2220.73 312.421 2224.11 296.318 2230.86 282.594C2237.72 268.759 2247.29 258.023 2259.58 250.387C2271.97 242.75 2286.58 238.932 2303.41 238.932C2320.12 238.932 2334.56 242.639 2346.74 250.055C2359.02 257.359 2368.43 267.652 2374.96 280.934C2381.6 294.215 2384.92 309.71 2384.92 327.418V340.699H2241.15V313.141H2365.16L2345.24 338.873V322.936C2345.24 311.425 2343.47 301.852 2339.93 294.215C2336.39 286.578 2331.52 280.878 2325.32 277.115C2319.12 273.242 2311.98 271.305 2303.9 271.305C2295.71 271.305 2288.41 273.297 2281.99 277.281C2275.68 281.155 2270.7 286.966 2267.05 294.713C2263.51 302.46 2261.74 311.868 2261.74 322.936V338.873C2261.74 349.609 2263.51 358.795 2267.05 366.432C2270.7 373.958 2275.85 379.768 2282.49 383.863C2289.13 387.848 2297.04 389.84 2306.23 389.84C2313.09 389.84 2319.12 388.788 2324.32 386.686C2329.53 384.472 2333.79 381.65 2337.11 378.219C2340.54 374.788 2342.92 371.08 2344.25 367.096L2344.58 365.934H2383.09L2382.76 367.76C2381.32 374.511 2378.67 381.152 2374.79 387.682C2370.92 394.101 2365.72 399.911 2359.19 405.113C2352.66 410.315 2344.91 414.466 2335.94 417.564C2326.98 420.553 2316.8 422.047 2305.4 422.047Z" fill="var(--fill-0, white)" style="fill:white;fill-opacity:1;"/>
<path d="M2158.3 418.561V179H2199.64V418.561H2158.3Z" fill="var(--fill-0, white)" style="fill:white;fill-opacity:1;"/>
<path d="M2035.28 421.549C2023.66 421.549 2013.36 419.335 2004.4 414.908C1995.54 410.37 1988.63 404.117 1983.65 396.148C1978.78 388.069 1976.34 378.828 1976.34 368.424V368.092C1976.34 357.578 1978.94 348.613 1984.14 341.197C1989.46 333.671 1997.09 327.75 2007.05 323.434C2017.02 319.007 2029.08 316.35 2043.25 315.465L2110.48 311.314V338.707L2049.06 342.525C2038.87 343.189 2031.07 345.624 2025.65 349.83C2020.23 354.036 2017.51 359.625 2017.51 366.598V366.764C2017.51 373.958 2020.23 379.658 2025.65 383.863C2031.18 387.958 2038.49 390.006 2047.56 390.006C2055.53 390.006 2062.61 388.401 2068.81 385.191C2075.12 381.982 2080.1 377.61 2083.75 372.076C2087.41 366.542 2089.23 360.289 2089.23 353.316V300.523C2089.23 291.669 2086.41 284.697 2080.77 279.605C2075.23 274.404 2067.21 271.803 2056.69 271.803C2046.95 271.803 2039.15 273.906 2033.29 278.111C2027.42 282.206 2023.77 287.519 2022.33 294.049L2022 295.543H1983.81L1983.98 293.551C1984.86 283.147 1988.35 273.85 1994.44 265.66C2000.52 257.359 2008.94 250.829 2019.67 246.07C2030.52 241.311 2043.36 238.932 2058.19 238.932C2072.91 238.932 2085.64 241.367 2096.37 246.236C2107.22 251.106 2115.57 257.913 2121.44 266.656C2127.42 275.4 2130.4 285.693 2130.4 297.535V418.561H2089.23V391.5H2088.24C2084.92 397.587 2080.6 402.9 2075.29 407.438C2069.97 411.975 2063.89 415.462 2057.03 417.897C2050.27 420.331 2043.02 421.549 2035.28 421.549Z" fill="var(--fill-0, white)" style="fill:white;fill-opacity:1;"/>
<path d="M1887.85 422.047C1870.47 422.047 1855.42 418.339 1842.69 410.924C1829.96 403.508 1820.11 392.939 1813.14 379.215C1806.28 365.491 1802.85 349.221 1802.85 330.406V330.24C1802.85 311.536 1806.33 295.377 1813.31 281.764C1820.28 268.04 1830.08 257.47 1842.69 250.055C1855.42 242.639 1870.31 238.932 1887.35 238.932C1902.85 238.932 1916.24 241.92 1927.53 247.897C1938.82 253.762 1947.67 261.565 1954.09 271.305C1960.51 281.044 1964.16 291.78 1965.05 303.512V304.674H1926.2L1925.87 303.346C1924.21 294.824 1920.17 287.574 1913.75 281.598C1907.44 275.51 1898.81 272.467 1887.85 272.467C1879.22 272.467 1871.63 274.846 1865.1 279.605C1858.69 284.254 1853.7 290.895 1850.16 299.527C1846.62 308.16 1844.85 318.508 1844.85 330.572V330.738C1844.85 342.913 1846.62 353.316 1850.16 361.949C1853.82 370.582 1858.85 377.223 1865.27 381.871C1871.8 386.409 1879.38 388.678 1888.01 388.678C1898.53 388.678 1907 385.855 1913.42 380.211C1919.95 374.456 1924.15 366.985 1926.03 357.799L1926.36 356.305H1965.38L1965.21 357.467C1964.11 369.641 1960.23 380.598 1953.59 390.338C1946.95 400.078 1938.04 407.825 1926.86 413.58C1915.68 419.225 1902.68 422.047 1887.85 422.047Z" fill="var(--fill-0, white)" style="fill:white;fill-opacity:1;"/>
<path d="M1716.68 422.047C1701.3 422.047 1688.13 419.778 1677.17 415.24C1666.32 410.703 1657.8 404.339 1651.6 396.148C1645.51 387.848 1641.81 378.274 1640.48 367.428L1640.31 365.934H1680.99L1681.32 367.428C1682.87 375.064 1686.52 380.986 1692.28 385.191C1698.14 389.397 1706.33 391.5 1716.85 391.5C1723.6 391.5 1729.35 390.67 1734.11 389.01C1738.87 387.35 1742.52 384.915 1745.07 381.705C1747.72 378.495 1749.05 374.732 1749.05 370.416V370.25C1749.05 365.048 1747.28 360.842 1743.74 357.633C1740.2 354.313 1733.83 351.601 1724.65 349.498L1695.43 343.023C1684.25 340.478 1674.9 336.992 1667.37 332.564C1659.85 328.137 1654.2 322.659 1650.44 316.129C1646.68 309.488 1644.79 301.796 1644.79 293.053V292.887C1644.79 282.151 1647.73 272.744 1653.59 264.664C1659.46 256.585 1667.71 250.276 1678.33 245.738C1688.96 241.201 1701.3 238.932 1715.35 238.932C1729.96 238.932 1742.47 241.367 1752.87 246.236C1763.27 251.106 1771.3 257.636 1776.94 265.826C1782.7 274.016 1785.8 283.203 1786.24 293.385L1786.41 295.211H1747.89L1747.72 293.883C1746.84 286.8 1743.63 280.989 1738.1 276.451C1732.56 271.803 1724.98 269.479 1715.35 269.479C1709.26 269.479 1703.95 270.364 1699.41 272.135C1694.99 273.906 1691.56 276.396 1689.12 279.605C1686.8 282.815 1685.63 286.578 1685.63 290.895V291.061C1685.63 294.381 1686.46 297.369 1688.13 300.025C1689.79 302.682 1692.44 305.006 1696.09 306.998C1699.75 308.88 1704.62 310.54 1710.7 311.979L1739.92 318.453C1758.18 322.548 1771.19 328.414 1778.94 336.051C1786.68 343.577 1790.56 353.704 1790.56 366.432V366.598C1790.56 377.665 1787.4 387.405 1781.09 395.816C1774.79 404.117 1766.04 410.592 1754.86 415.24C1743.8 419.778 1731.07 422.047 1716.68 422.047Z" fill="var(--fill-0, white)" style="fill:white;fill-opacity:1;"/>
<path d="M1551.65 418.561V245.904H1580.54V275.123H1581.2C1584.08 265.162 1589.06 257.249 1596.15 251.383C1603.23 245.517 1611.64 242.584 1621.38 242.584C1623.93 242.584 1626.19 242.75 1628.19 243.082C1630.29 243.303 1631.89 243.525 1633 243.746V271.803C1631.89 271.36 1629.9 270.973 1627.02 270.641C1624.26 270.309 1621.1 270.143 1617.56 270.143C1610.15 270.143 1603.62 271.803 1597.97 275.123C1592.44 278.443 1588.12 283.258 1585.02 289.566C1582.03 295.764 1580.54 303.235 1580.54 311.979V418.561H1551.65Z" fill="var(--fill-0, white)" style="fill:white;fill-opacity:1;"/>
<path d="M1455.19 421.881C1438.7 421.881 1424.48 418.229 1412.53 410.924C1400.68 403.619 1391.55 393.326 1385.13 380.045C1378.82 366.653 1375.67 350.937 1375.67 332.897V332.73C1375.67 314.911 1378.88 299.251 1385.3 285.748C1391.72 272.135 1400.74 261.565 1412.36 254.039C1423.98 246.402 1437.65 242.584 1453.37 242.584C1469.08 242.584 1482.58 246.236 1493.87 253.541C1505.27 260.735 1514.02 270.862 1520.1 283.922C1526.19 296.982 1529.23 312.145 1529.23 329.41V340.035H1390.11V317.457H1514.96L1500.35 338.375V327.252C1500.35 313.86 1498.3 302.792 1494.21 294.049C1490.22 285.305 1484.69 278.831 1477.6 274.625C1470.52 270.309 1462.39 268.15 1453.2 268.15C1444.01 268.15 1435.77 270.419 1428.46 274.957C1421.16 279.384 1415.4 286.025 1411.2 294.879C1406.99 303.622 1404.89 314.413 1404.89 327.252V338.375C1404.89 350.55 1406.94 360.953 1411.03 369.586C1415.24 378.219 1421.16 384.859 1428.79 389.508C1436.43 394.046 1445.45 396.314 1455.86 396.314C1463.16 396.314 1469.69 395.208 1475.45 392.994C1481.2 390.781 1486.01 387.737 1489.89 383.863C1493.76 379.99 1496.53 375.563 1498.19 370.582L1498.69 369.088H1527.08L1526.74 370.748C1525.31 377.831 1522.54 384.472 1518.44 390.67C1514.46 396.868 1509.31 402.346 1503 407.105C1496.7 411.754 1489.5 415.406 1481.42 418.063C1473.34 420.608 1464.6 421.881 1455.19 421.881Z" fill="var(--fill-0, white)" style="fill:white;fill-opacity:1;"/>
<path d="M1204 476.666V245.904H1232.89V275.123H1233.55C1237.21 268.372 1241.69 262.617 1247 257.857C1252.43 252.988 1258.62 249.225 1265.6 246.568C1272.57 243.912 1280.15 242.584 1288.34 242.584C1303.06 242.584 1315.9 246.292 1326.86 253.707C1337.92 261.012 1346.5 271.415 1352.59 284.918C1358.68 298.31 1361.72 314.081 1361.72 332.232V332.398C1361.72 350.55 1358.62 366.321 1352.42 379.713C1346.33 393.105 1337.81 403.508 1326.86 410.924C1316.01 418.229 1303.34 421.881 1288.84 421.881C1280.76 421.881 1273.18 420.608 1266.09 418.063C1259.01 415.406 1252.7 411.699 1247.17 406.939C1241.74 402.07 1237.21 396.314 1233.55 389.674H1232.89V476.666H1204ZM1282.7 396.314C1292.88 396.314 1301.68 393.714 1309.09 388.512C1316.51 383.31 1322.21 375.95 1326.19 366.432C1330.18 356.803 1332.17 345.458 1332.17 332.398V332.232C1332.17 318.951 1330.18 307.551 1326.19 298.033C1322.21 288.404 1316.51 281.044 1309.09 275.953C1301.68 270.751 1292.88 268.15 1282.7 268.15C1272.96 268.15 1264.32 270.807 1256.8 276.119C1249.27 281.432 1243.35 288.902 1239.03 298.531C1234.83 308.05 1232.72 319.283 1232.72 332.232V332.398C1232.72 345.237 1234.88 356.471 1239.2 366.1C1243.52 375.618 1249.38 383.033 1256.8 388.346C1264.32 393.658 1272.96 396.314 1282.7 396.314Z" fill="var(--fill-0, white)" style="fill:white;fill-opacity:1;"/>
<path d="M1062.05 476.666C1059.29 476.666 1056.46 476.5 1053.59 476.168C1050.82 475.947 1048.5 475.67 1046.61 475.338V451.764C1047.83 451.985 1049.22 452.206 1050.76 452.428C1052.42 452.649 1054.14 452.76 1055.91 452.76C1065.1 452.76 1072.4 451.155 1077.83 447.945C1083.36 444.736 1087.84 438.261 1091.27 428.522L1094.76 418.727L1030.68 245.904H1061.56L1111.36 396.314L1105.22 389.674H1113.85L1107.71 396.314L1157.68 245.904H1188.06L1120.66 429.352C1116.56 440.309 1111.97 449.273 1106.88 456.246C1101.79 463.219 1095.64 468.365 1088.45 471.686C1081.26 475.006 1072.46 476.666 1062.05 476.666Z" fill="var(--fill-0, white)" style="fill:white;fill-opacity:1;"/>
<path d="M819 418.561V179H848.883V282.594H980.367V179H1010.25V418.561H980.367V309.488H848.883V418.561H819Z" fill="var(--fill-0, white)" style="fill:white;fill-opacity:1;"/>
</g>
</g>
</svg>
