<svg width="197" height="50" viewBox="0 0 197 50" fill="none" xmlns="http://www.w3.org/2000/svg">
<path d="M37.9775 5.13428C37.8525 5.31864 36.9063 6.21509 36.6768 6.44775C35.8658 7.26287 35.0776 8.10127 34.3135 8.96045C33.2842 10.1185 32.304 11.3192 31.375 12.5591C29.4489 15.1293 27.5732 18.0423 26.5889 21.1753C25.6382 21.8364 24.3607 21.8332 23.4131 21.1616C21.964 16.604 18.3472 11.9126 15.4141 8.65185C14.692 7.8504 13.951 7.06619 13.1914 6.30029C12.9464 6.05592 12.6979 5.81513 12.4463 5.57764C12.3129 5.45064 12.1012 5.27011 12 5.12451L12 5.11279C12.267 4.84263 13.024 3.95227 13.2568 3.77392C13.5931 4.05189 13.898 4.36042 14.209 4.6665C14.773 5.21603 15.3207 5.78208 15.8525 6.36279C17.5725 8.21595 19.2082 10.1156 20.6816 12.1733C21.0289 12.6583 21.3486 13.1493 21.6826 13.6421C21.7527 13.7763 21.8337 13.8705 21.9268 13.9888C21.8767 13.8579 21.8206 13.7314 21.7646 13.603C21.6621 13.2686 21.4844 12.8099 21.3604 12.4751C21.0902 11.7403 20.8081 11.0095 20.5146 10.2837C19.8248 8.5557 19.0772 6.85083 18.2744 5.17236C17.8564 4.27363 17.4143 3.38603 16.9482 2.51123C17.1567 2.38381 18.4396 1.65697 18.5879 1.68799C18.7707 1.82112 19.2154 2.79324 19.3398 3.04248C20.708 5.79768 21.9326 8.62191 23.0098 11.5034C23.39 12.5268 23.8859 13.8489 24.1592 14.8979C24.1941 13.3967 24.1594 11.7418 24.1592 10.2271L24.1582 0.846191L25.9932 0.846191C26.0282 3.52994 25.9974 6.27837 25.9971 8.96631L25.9971 12.1597C25.9969 12.895 26.0078 13.6515 25.9707 14.3843C26.1107 14.0565 26.2827 13.4747 26.4043 13.1177C26.6519 12.3993 26.91 11.6845 27.1797 10.9741C28.174 8.37504 29.2881 5.82307 30.5176 3.32666C30.6584 3.04223 31.2372 1.82108 31.4062 1.64307C31.6738 1.767 32.8316 2.36379 33.0312 2.51807C31.8186 4.86714 30.7084 7.26793 29.7041 9.71338C29.1134 11.1636 28.6263 12.5469 28.0703 13.9976C28.2581 13.7439 28.4241 13.4657 28.5996 13.2017C28.8865 12.7768 29.1799 12.356 29.4795 11.9399C31.2002 9.59841 33.0897 7.385 35.1328 5.31885C35.6019 4.84786 36.2412 4.17224 36.7373 3.77002C37.1643 4.17262 37.5639 4.6842 37.9912 5.11475L37.9775 5.13428ZM37.5186 45.7905C37.3021 46.0264 36.9233 46.3776 36.7471 46.6255C34.7524 44.7098 32.8883 42.6621 31.168 40.4966C30.7576 39.9828 30.3622 39.5086 29.9697 38.979C29.5299 38.3839 29.1018 37.7791 28.6865 37.1665C28.4988 36.8869 28.3288 36.5987 28.1387 36.3198C28.5796 37.6961 29.2826 39.4216 29.8369 40.7505C30.7937 43.0443 31.8768 45.5337 33.0518 47.7222C32.5757 48.025 31.9051 48.3016 31.4004 48.6187C31.2286 48.3472 31.038 47.9462 30.8906 47.6509C30.5822 47.0345 30.283 46.413 29.9932 45.7876C28.4359 42.5204 27.0928 39.1552 25.9727 35.7134C26.0308 36.8937 25.9969 38.2903 25.9971 39.4897L25.9971 48.061C25.997 48.4329 25.9863 48.8762 26.0068 49.2417C25.4732 49.2365 24.6783 49.2145 24.1582 49.2505C24.1949 45.7399 24.1591 42.1598 24.1592 38.6431C24.1543 37.5031 24.1551 36.3629 24.1621 35.2231C23.7495 36.7785 22.9838 38.7656 22.3818 40.269C21.5927 42.2804 20.7302 44.2623 19.7959 46.2104C19.5336 46.7556 19.2892 47.3088 19.0068 47.8462C18.8776 48.0923 18.7558 48.3677 18.6045 48.6001C18.3164 48.4592 17.1848 47.8962 16.9961 47.7349C17.0095 47.5548 18.2294 45.1346 18.4326 44.6938C19.7086 41.9558 20.8527 39.1576 21.8613 36.3101C21.6794 36.5649 21.4805 36.9051 21.2969 37.1772C20.8196 37.8901 20.3221 38.5892 19.8057 39.2739C19.4946 39.6842 19.1487 40.1 18.8252 40.5034C17.8244 41.7523 16.7829 42.9677 15.7012 44.147C14.8936 45.0133 14.0984 45.7942 13.2744 46.6313C12.9281 46.2395 12.3027 45.6501 12 45.2661L12 45.2378C12.5092 44.6904 13.0575 44.1758 13.5811 43.6421C13.9727 43.2427 14.3502 42.8191 14.7266 42.4048C17.9922 38.8088 21.8694 33.8522 23.4121 28.9272C24.3644 28.2521 25.6513 28.2521 26.6035 28.9233C28.1013 33.6574 31.3518 37.9599 34.5537 41.6118C35.3181 42.4916 36.1122 43.3456 36.9336 44.1724C37.2597 44.5028 37.658 44.9192 38 45.2251L38 45.2603C37.85 45.4126 37.6688 45.6268 37.5186 45.7905Z" fill="white" fill-opacity="0.6" style="fill:white;fill-opacity:0.6;"/>
<path d="M21.2422 18.9199C20.6809 18.4774 20.0085 18.2024 19.3184 18.1592C18.8061 18.1271 18.2922 18.2267 17.8301 18.4687C17.739 18.3975 17.6475 18.3294 17.5557 18.2646C16.8348 17.7562 16.2111 17.5381 15.6875 17.5381C14.6135 17.5382 13.8092 18.1252 13.1719 19.5674C12.5118 21.0612 12.2315 23.1254 12.2314 25.1152C12.2314 27.11 12.5056 29.1735 13.1621 30.666C13.7936 32.1015 14.5956 32.6923 15.6875 32.6924C16.2125 32.6924 16.8366 32.4723 17.5576 31.9561C17.6785 31.8695 17.7976 31.7755 17.917 31.6777C18.3555 31.8871 18.8365 31.9729 19.3164 31.9434C19.992 31.9018 20.6501 31.6372 21.2051 31.2109C21.1157 31.3681 21.021 31.5371 20.917 31.7139C20.2502 32.8471 19.2834 34.3635 18.085 35.8848C16.8898 37.4019 15.4419 38.9522 13.8096 40.1299C12.1796 41.3059 10.3043 42.1533 8.27344 42.1533C7.68996 42.1533 7.09913 41.9279 6.60058 41.625C6.08932 41.3143 5.59837 40.8765 5.21582 40.3506L6.70898 39.2646C6.94172 39.5846 7.24815 39.8586 7.55957 40.0478C7.88378 40.2448 8.141 40.3076 8.27344 40.3076C9.78225 40.3076 11.2841 39.6757 12.7295 38.6328C13.1004 38.3652 13.4641 38.0731 13.8184 37.7627C13.311 37.9153 12.7913 38 12.2627 38L12.1973 38C6.64649 37.9448 4.92383 30.8619 4.92383 25.1152C4.92385 19.3686 6.68523 12.2867 12.1973 12.2314L12.2627 12.2305C12.8059 12.2305 13.3406 12.3193 13.8623 12.4795C13.489 12.1545 13.1054 11.8496 12.7139 11.5713C11.2702 10.5451 9.77279 9.92285 8.27344 9.92285C7.97708 9.92285 7.84694 9.93034 7.68945 9.99609C7.52667 10.0641 7.24837 10.2373 6.8252 10.7451L5.40625 9.5625C5.94444 8.91668 6.45034 8.51251 6.97852 8.29199C7.51186 8.06939 7.97998 8.07715 8.27344 8.07715C10.2887 8.07715 12.1562 8.90996 13.7832 10.0664C15.4128 11.2248 16.862 12.7505 18.0605 14.2432C19.2623 15.7398 20.2344 17.2316 20.9053 18.3467C21.0279 18.5505 21.1397 18.7428 21.2422 18.9199ZM15.7725 15.6934C15.5586 15.5123 15.342 15.3418 15.123 15.1846C14.0909 14.4433 13.132 14.0773 12.2627 14.0771C10.4787 14.0772 9.1592 15.141 8.18652 17.2754C7.19821 19.4443 6.76954 22.3727 6.76953 25.1152C6.76953 27.8625 7.18949 30.7906 8.17285 32.958C9.13834 35.0859 10.4559 36.1533 12.2627 36.1533C13.1358 36.1532 14.096 35.7822 15.1289 35.0293C15.3381 34.8768 15.5455 34.7127 15.75 34.5381C15.7293 34.5384 15.7082 34.5381 15.6875 34.5381C11.5161 34.5378 10.3848 29.3344 10.3848 25.1152C10.3848 20.8961 11.5456 15.6926 15.6875 15.6924C15.7158 15.6924 15.7443 15.6927 15.7725 15.6934ZM45.0771 25.1738C45.0496 30.8957 43.2725 37.868 37.8037 37.9229L37.7383 37.9229C37.1952 37.9228 36.6613 37.8339 36.1396 37.6738C36.5128 37.9987 36.8957 38.3038 37.2871 38.582C38.7308 39.6082 40.2282 40.2305 41.7275 40.2305C42.0238 40.2305 42.154 40.2239 42.3115 40.1582C42.4743 40.0902 42.7526 39.917 43.1758 39.4092L44.5937 40.5908C44.0556 41.2365 43.5506 41.6408 43.0225 41.8613C42.4891 42.084 42.021 42.0771 41.7275 42.0771C39.7122 42.0771 37.8448 41.2434 36.2178 40.0869C34.5882 38.9286 33.139 37.4038 31.9404 35.9111C30.7385 34.4143 29.7666 32.9217 29.0957 31.8066C28.9489 31.5627 28.817 31.3359 28.6992 31.1309C29.2674 31.5919 29.9544 31.8942 30.6572 31.9697C31.1828 32.0262 31.7264 31.9527 32.2197 31.7217C32.2949 31.7795 32.3696 31.8363 32.4453 31.8896C33.1662 32.3981 33.7899 32.6152 34.3135 32.6152C35.3875 32.6151 36.1918 32.0283 36.8291 30.5859C37.4892 29.0921 37.7695 27.028 37.7695 25.0381C37.7695 23.0435 37.4952 20.9806 36.8389 19.4883C36.2074 18.0527 35.4054 17.462 34.3135 17.4619C33.7885 17.4619 33.1644 17.681 32.4434 18.1973C32.3503 18.2639 32.2582 18.3348 32.166 18.4082C31.6874 18.2017 31.1654 18.1374 30.6611 18.1885C30.0084 18.2547 29.3653 18.5106 28.8154 18.9082C28.8993 18.7611 28.9876 18.6033 29.084 18.4395C29.7508 17.3062 30.7176 15.7897 31.916 14.2686C33.1112 12.7514 34.559 11.2012 36.1914 10.0234C37.8213 8.84754 39.6968 8 41.7275 8C42.311 8.00002 42.9019 8.22542 43.4004 8.52832C43.9116 8.83897 44.4026 9.27684 44.7852 9.80273L43.292 10.8887C43.0593 10.5688 42.7527 10.2956 42.4414 10.1064C42.1171 9.90943 41.86 9.84573 41.7275 9.8457C40.2188 9.84571 38.7168 10.4778 37.2715 11.5205C36.9006 11.7881 36.5368 12.0802 36.1826 12.3906C36.6899 12.2381 37.2097 12.1534 37.7383 12.1533L37.8037 12.1543C43.3544 12.2095 45.0771 19.2914 45.0771 25.0381L45.0771 25.1738ZM43.2314 25.0381C43.2314 22.2908 42.8115 19.3627 41.8281 17.1953C40.8626 15.0675 39.5451 14 37.7383 14C36.8652 14.0001 35.905 14.3712 34.8721 15.124C34.6628 15.2765 34.4554 15.4415 34.251 15.6162C34.2716 15.6159 34.2928 15.6152 34.3135 15.6152C38.4847 15.6155 39.6162 20.819 39.6162 25.0381L39.6152 25.2373C39.579 29.4193 38.3905 34.4616 34.3135 34.4619C34.2852 34.4619 34.2567 34.4616 34.2285 34.4609C34.4423 34.6419 34.6591 34.8116 34.8779 34.9687C35.9102 35.71 36.8689 36.077 37.7383 36.0771C39.5222 36.0771 40.8418 35.0132 41.8145 32.8789C42.8029 30.71 43.2314 27.7807 43.2314 25.0381Z" fill="white" style="fill:white;fill-opacity:1;"/>
<path d="M34.8467 25.0448C34.8467 27.7691 34.1661 29.587 33.2936 30.8172C32.6319 31.7502 31.6144 32.0725 30.6578 31.9697C29.7277 31.8698 28.824 31.3749 28.1887 30.6367L27.1097 29.383C26.0126 28.1081 24.0416 28.0977 22.931 29.3609L21.7559 30.6976C21.1183 31.4227 20.233 31.8874 19.3167 31.9437C18.3718 32.0018 17.4211 31.6169 16.8035 30.7104C15.9429 29.4472 15.1544 27.5875 15.1544 25.0448C15.1544 22.4863 15.9527 20.6274 16.821 19.3718C17.4391 18.4781 18.3826 18.101 19.3189 18.1597C20.2268 18.2166 21.1034 18.6751 21.7378 19.3878L22.9425 20.7411C24.0518 21.9872 26.0028 21.9768 27.0988 20.7191L28.1383 19.5261C28.7893 18.779 29.7156 18.2844 30.662 18.1886C31.6327 18.0902 32.6688 18.418 33.336 19.3687C34.1901 20.5856 34.8467 22.3691 34.8467 25.0448ZM33.0005 25.0448C33.0005 22.6866 32.4278 21.2883 31.8249 20.4293C31.6067 20.1185 31.2759 19.982 30.848 20.0253C30.3957 20.0711 29.8916 20.3241 29.5301 20.739L28.4907 21.9319C26.6641 24.0282 23.4123 24.0454 21.5636 21.9686L20.3589 20.6152C20.0125 20.2261 19.5746 20.0255 19.2034 20.0023C18.8606 19.9808 18.5604 20.1024 18.3394 20.422C17.664 21.3986 17.0005 22.8961 17.0005 25.0448C17.0005 27.181 17.6563 28.6833 18.3292 29.671C18.552 29.9981 18.8566 30.1224 19.2033 30.101C19.5786 30.078 20.0213 29.8745 20.3694 29.4786L21.5445 28.1419C23.3955 26.0366 26.6805 26.0539 28.5091 28.1787L29.588 29.4325C29.94 29.8414 30.4247 30.088 30.855 30.1342C31.2589 30.1775 31.5739 30.0506 31.7877 29.7492C32.4068 28.8762 33.0005 27.4457 33.0005 25.0448Z" fill="white" style="fill:white;fill-opacity:1;"/>
<circle cx="25" cy="25" r="24.0769" transform="rotate(90 25 25)" stroke="white" style="stroke:white;stroke-opacity:1;" stroke-width="1.84615"/>
<path d="M188.764 32.2345C187.623 32.2345 186.631 31.9535 185.788 31.3916C184.954 30.8212 184.307 30.0082 183.847 28.9525C183.396 27.8968 183.17 26.6453 183.17 25.198V25.1852C183.17 23.7294 183.4 22.4779 183.86 21.4307C184.32 20.375 184.967 19.5662 185.801 19.0043C186.635 18.4339 187.619 18.1487 188.751 18.1487C189.398 18.1487 189.99 18.2551 190.526 18.468C191.071 18.6723 191.552 18.9703 191.969 19.3619C192.386 19.745 192.723 20.209 192.978 20.7539H193.055V13.5386H196.222V31.9663H193.055V29.6676H192.978C192.731 30.204 192.399 30.6637 191.982 31.0468C191.573 31.4214 191.097 31.7152 190.552 31.928C190.015 32.1323 189.419 32.2345 188.764 32.2345ZM189.722 29.5655C190.377 29.5655 190.956 29.3867 191.458 29.0291C191.961 28.6715 192.352 28.165 192.633 27.5094C192.914 26.8539 193.055 26.0834 193.055 25.198V25.1852C193.055 24.2998 192.91 23.5336 192.62 22.8865C192.34 22.231 191.948 21.7244 191.446 21.3668C190.952 21.0093 190.377 20.8305 189.722 20.8305C189.041 20.8305 188.449 21.0093 187.947 21.3668C187.453 21.7159 187.07 22.214 186.797 22.861C186.533 23.508 186.401 24.2828 186.401 25.1852V25.198C186.401 26.0919 186.533 26.8666 186.797 27.5222C187.07 28.1777 187.453 28.6843 187.947 29.0419C188.449 29.3909 189.041 29.5655 189.722 29.5655Z" fill="white" style="fill:white;fill-opacity:1;"/>
<path d="M176.108 32.2345C174.754 32.2345 173.588 31.9493 172.609 31.3789C171.638 30.8085 170.893 29.9997 170.374 28.9525C169.855 27.9053 169.595 26.6666 169.595 25.2363V25.2235C169.595 23.8017 169.855 22.563 170.374 21.5073C170.902 20.4431 171.638 19.6173 172.583 19.0299C173.537 18.4424 174.66 18.1487 175.955 18.1487C177.24 18.1487 178.351 18.4339 179.288 19.0043C180.233 19.5662 180.956 20.358 181.459 21.3796C181.969 22.4013 182.225 23.5932 182.225 24.9553V25.977H171.166V23.8571H180.705L179.173 25.8365V24.6105C179.173 23.7251 179.036 22.9887 178.764 22.4013C178.492 21.8138 178.117 21.3754 177.64 21.0859C177.163 20.7879 176.614 20.6389 175.993 20.6389C175.363 20.6389 174.801 20.7922 174.307 21.0987C173.822 21.3966 173.439 21.8436 173.158 22.4396C172.885 23.0355 172.749 23.7592 172.749 24.6105V25.8365C172.749 26.6623 172.885 27.369 173.158 27.9564C173.439 28.5353 173.835 28.9823 174.345 29.2973C174.856 29.6038 175.465 29.757 176.172 29.757C176.699 29.757 177.163 29.6761 177.564 29.5144C177.964 29.3441 178.292 29.127 178.547 28.8631C178.811 28.5992 178.994 28.314 179.096 28.0075L179.122 27.9181H182.084L182.059 28.0586C181.948 28.5779 181.744 29.0887 181.446 29.591C181.148 30.0848 180.748 30.5318 180.245 30.9319C179.743 31.332 179.147 31.6513 178.458 31.8897C177.768 32.1196 176.985 32.2345 176.108 32.2345Z" fill="white" style="fill:white;fill-opacity:1;"/>
<path d="M164.793 31.9663V13.5386H167.973V31.9663H164.793Z" fill="white" style="fill:white;fill-opacity:1;"/>
<path d="M155.329 32.1962C154.435 32.1962 153.644 32.0259 152.954 31.6854C152.273 31.3363 151.741 30.8553 151.358 30.2423C150.983 29.6208 150.796 28.9099 150.796 28.1096V28.0841C150.796 27.2753 150.996 26.5857 151.396 26.0153C151.805 25.4364 152.392 24.9809 153.158 24.6489C153.925 24.3083 154.853 24.104 155.942 24.0359L161.114 23.7166V25.8237L156.389 26.1175C155.606 26.1685 155.006 26.3558 154.589 26.6793C154.171 27.0029 153.963 27.4328 153.963 27.9692V27.9819C153.963 28.5353 154.171 28.9738 154.589 29.2973C155.014 29.6123 155.576 29.7698 156.274 29.7698C156.887 29.7698 157.432 29.6463 157.909 29.3995C158.394 29.1526 158.777 28.8163 159.058 28.3906C159.339 27.9649 159.48 27.4839 159.48 26.9475V22.8865C159.48 22.2054 159.263 21.6691 158.828 21.2775C158.403 20.8773 157.786 20.6772 156.977 20.6772C156.228 20.6772 155.627 20.839 155.176 21.1625C154.725 21.4775 154.444 21.8862 154.333 22.3885L154.308 22.5034H151.37L151.383 22.3502C151.451 21.5499 151.72 20.8347 152.188 20.2047C152.656 19.5662 153.303 19.0639 154.129 18.6978C154.963 18.3317 155.951 18.1487 157.092 18.1487C158.224 18.1487 159.203 18.336 160.029 18.7106C160.863 19.0852 161.506 19.6088 161.957 20.2814C162.417 20.9539 162.647 21.7457 162.647 22.6567V31.9663H159.48V29.8847H159.403C159.148 30.353 158.816 30.7616 158.407 31.1107C157.998 31.4597 157.53 31.7279 157.002 31.9152C156.483 32.1025 155.925 32.1962 155.329 32.1962Z" fill="white" style="fill:white;fill-opacity:1;"/>
<path d="M143.989 32.2345C142.652 32.2345 141.494 31.9493 140.515 31.3789C139.536 30.8085 138.778 29.9954 138.242 28.9397C137.714 27.884 137.45 26.6325 137.45 25.1852V25.1724C137.45 23.7336 137.718 22.4906 138.255 21.4435C138.791 20.3878 139.545 19.5747 140.515 19.0043C141.494 18.4339 142.639 18.1487 143.95 18.1487C145.142 18.1487 146.172 18.3786 147.041 18.8383C147.909 19.2895 148.59 19.8897 149.084 20.6389C149.578 21.3881 149.859 22.214 149.927 23.1164V23.2058H146.939L146.913 23.1036C146.785 22.4481 146.475 21.8904 145.981 21.4307C145.496 20.9625 144.832 20.7283 143.989 20.7283C143.325 20.7283 142.741 20.9114 142.239 21.2775C141.745 21.635 141.362 22.1458 141.09 22.8099C140.817 23.474 140.681 24.27 140.681 25.198V25.2108C140.681 26.1472 140.817 26.9475 141.09 27.6116C141.371 28.2757 141.758 28.7865 142.252 29.144C142.754 29.4931 143.337 29.6676 144.001 29.6676C144.81 29.6676 145.462 29.4505 145.955 29.0163C146.458 28.5736 146.781 27.999 146.926 27.2923L146.951 27.1774H149.952L149.94 27.2668C149.855 28.2033 149.557 29.0461 149.046 29.7953C148.535 30.5445 147.85 31.1405 146.99 31.5832C146.13 32.0174 145.129 32.2345 143.989 32.2345Z" fill="white" style="fill:white;fill-opacity:1;"/>
<path d="M130.822 32.2345C129.638 32.2345 128.625 32.06 127.782 31.7109C126.948 31.3618 126.293 30.8723 125.816 30.2423C125.348 29.6038 125.062 28.8674 124.96 28.033L124.947 27.9181H128.076L128.102 28.033C128.221 28.6205 128.502 29.0759 128.945 29.3995C129.396 29.723 130.026 29.8847 130.835 29.8847C131.354 29.8847 131.797 29.8209 132.163 29.6932C132.529 29.5655 132.81 29.3782 133.006 29.1313C133.21 28.8844 133.312 28.5949 133.312 28.2629V28.2501C133.312 27.85 133.176 27.5265 132.903 27.2796C132.631 27.0242 132.141 26.8156 131.435 26.6538L129.187 26.1558C128.327 25.9599 127.608 25.6918 127.029 25.3512C126.45 25.0107 126.016 24.5893 125.726 24.087C125.437 23.5761 125.292 22.9844 125.292 22.3119V22.2991C125.292 21.4733 125.518 20.7496 125.969 20.1281C126.42 19.5066 127.055 19.0213 127.872 18.6723C128.689 18.3232 129.638 18.1487 130.72 18.1487C131.843 18.1487 132.805 18.336 133.606 18.7106C134.406 19.0852 135.023 19.5875 135.457 20.2175C135.9 20.8475 136.139 21.5541 136.173 22.3374L136.185 22.4779H133.223L133.21 22.3757C133.142 21.8308 132.895 21.3839 132.469 21.0348C132.044 20.6772 131.46 20.4985 130.72 20.4985C130.251 20.4985 129.843 20.5666 129.494 20.7028C129.153 20.839 128.889 21.0306 128.702 21.2775C128.523 21.5244 128.434 21.8138 128.434 22.1458V22.1586C128.434 22.414 128.498 22.6439 128.625 22.8482C128.753 23.0525 128.957 23.2313 129.238 23.3846C129.519 23.5293 129.894 23.657 130.362 23.7677L132.61 24.2657C134.014 24.5807 135.015 25.032 135.611 25.6194C136.207 26.1983 136.505 26.9773 136.505 27.9564V27.9692C136.505 28.8205 136.262 29.5697 135.777 30.2168C135.291 30.8553 134.619 31.3533 133.759 31.7109C132.908 32.06 131.929 32.2345 130.822 32.2345Z" fill="white" style="fill:white;fill-opacity:1;"/>
<path d="M118.127 31.9663V18.6851H120.35V20.9327H120.401C120.622 20.1664 121.005 19.5577 121.55 19.1065C122.095 18.6553 122.742 18.4297 123.491 18.4297C123.687 18.4297 123.861 18.4424 124.015 18.468C124.176 18.485 124.3 18.502 124.385 18.519V20.6772C124.3 20.6432 124.147 20.6134 123.925 20.5879C123.712 20.5623 123.47 20.5495 123.197 20.5495C122.627 20.5495 122.125 20.6772 121.69 20.9327C121.265 21.1881 120.933 21.5584 120.694 22.0437C120.464 22.5204 120.35 23.0951 120.35 23.7677V31.9663H118.127Z" fill="white" style="fill:white;fill-opacity:1;"/>
<path d="M110.707 32.2217C109.439 32.2217 108.345 31.9408 107.425 31.3789C106.514 30.817 105.812 30.0252 105.318 29.0036C104.833 27.9734 104.59 26.7645 104.59 25.3768V25.364C104.59 23.9933 104.837 22.7886 105.331 21.75C105.825 20.7028 106.519 19.8897 107.413 19.3108C108.306 18.7234 109.358 18.4297 110.567 18.4297C111.776 18.4297 112.814 18.7106 113.683 19.2725C114.56 19.8259 115.232 20.6049 115.701 21.6095C116.169 22.6141 116.403 23.7805 116.403 25.1086V25.9259H105.701V24.1891H115.305L114.181 25.7982V24.9426C114.181 23.9124 114.023 23.0611 113.708 22.3885C113.402 21.7159 112.976 21.2179 112.431 20.8943C111.886 20.5623 111.261 20.3963 110.554 20.3963C109.847 20.3963 109.213 20.5708 108.651 20.9199C108.089 21.2604 107.647 21.7712 107.323 22.4523C107 23.1249 106.838 23.955 106.838 24.9426V25.7982C106.838 26.7347 106.995 27.535 107.31 28.199C107.634 28.8631 108.089 29.3739 108.677 29.7315C109.264 30.0805 109.958 30.2551 110.758 30.2551C111.32 30.2551 111.823 30.1699 112.265 29.9997C112.708 29.8294 113.078 29.5953 113.376 29.2973C113.674 28.9993 113.887 28.6588 114.015 28.2757L114.053 28.1607H116.237L116.211 28.2884C116.101 28.8333 115.888 29.3441 115.573 29.8209C115.266 30.2976 114.87 30.7191 114.385 31.0851C113.9 31.4427 113.347 31.7237 112.725 31.928C112.104 32.1238 111.431 32.2217 110.707 32.2217Z" fill="white" style="fill:white;fill-opacity:1;"/>
<path d="M91.3852 36.436V18.6851H93.6073V20.9327H93.6584C93.9393 20.4133 94.2841 19.9706 94.6928 19.6045C95.1099 19.2299 95.5867 18.9405 96.123 18.7361C96.6594 18.5318 97.2426 18.4297 97.8726 18.4297C99.0049 18.4297 99.9925 18.7149 100.835 19.2853C101.687 19.8472 102.347 20.6474 102.815 21.6861C103.283 22.7163 103.517 23.9295 103.517 25.3257V25.3385C103.517 26.7347 103.279 27.9479 102.802 28.978C102.334 30.0082 101.678 30.8085 100.835 31.3789C100.001 31.9408 99.0262 32.2217 97.9109 32.2217C97.2894 32.2217 96.7062 32.1238 96.1614 31.928C95.6165 31.7237 95.1312 31.4385 94.7055 31.0724C94.2884 30.6978 93.9393 30.2551 93.6584 29.7443H93.6073V36.436H91.3852ZM97.4384 30.2551C98.2217 30.2551 98.8985 30.055 99.4689 29.6549C100.039 29.2547 100.478 28.6886 100.784 27.9564C101.091 27.2157 101.244 26.3431 101.244 25.3385V25.3257C101.244 24.304 101.091 23.4271 100.784 22.695C100.478 21.9543 100.039 21.3881 99.4689 20.9965C98.8985 20.5964 98.2217 20.3963 97.4384 20.3963C96.6892 20.3963 96.0251 20.6006 95.4462 21.0093C94.8673 21.4179 94.4118 21.9926 94.0798 22.7333C93.7563 23.4655 93.5945 24.3296 93.5945 25.3257V25.3385C93.5945 26.326 93.7605 27.1902 94.0925 27.9309C94.4246 28.663 94.8758 29.2334 95.4462 29.6421C96.0251 30.0507 96.6892 30.2551 97.4384 30.2551Z" fill="white" style="fill:white;fill-opacity:1;"/>
<path d="M80.466 36.436C80.2531 36.436 80.036 36.4232 79.8147 36.3976C79.6018 36.3806 79.4231 36.3593 79.2783 36.3338V34.5204C79.372 34.5374 79.4784 34.5545 79.5976 34.5715C79.7253 34.5885 79.8572 34.597 79.9935 34.597C80.7001 34.597 81.262 34.4736 81.6792 34.2267C82.1048 33.9798 82.4496 33.4817 82.7136 32.7325L82.9817 31.9791L78.0524 18.6851H80.4277L84.2588 30.2551L83.7863 29.7443H84.4503L83.9778 30.2551L87.8217 18.6851H90.1587L84.9739 32.7964C84.6589 33.6392 84.3056 34.3288 83.914 34.8652C83.5224 35.4016 83.0499 35.7974 82.4965 36.0528C81.9431 36.3083 81.2663 36.436 80.466 36.436Z" fill="white" style="fill:white;fill-opacity:1;"/>
<path d="M61.7695 31.9663V13.5386H64.0682V21.5073H74.1824V13.5386H76.4811V31.9663H74.1824V23.5761H64.0682V31.9663H61.7695Z" fill="white" style="fill:white;fill-opacity:1;"/>
</svg>
