<svg width="200" height="200" viewBox="0 0 200 200" fill="none" xmlns="http://www.w3.org/2000/svg">
<rect width="200" height="200" rx="100" fill="black"/>
<path d="M62.6552 153.684C57.155 153.486 52.7983 148.969 52.7983 143.465V90.2106C52.7983 85.3906 54.9764 80.8286 58.7247 77.7981C64.4506 73.1687 72.6002 73.0568 78.4511 77.5272L90.5418 86.7651C95.7823 89.9496 104.221 86.6874 109.462 79.4445L128.519 50.1396C130.392 47.2589 133.595 45.521 137.031 45.521C142.64 45.521 147.186 50.0673 147.186 55.6755V109.223C147.186 114.042 145.007 118.602 141.257 121.629C135.533 126.249 127.39 126.354 121.55 121.881L109.442 112.609C104.183 109.424 95.7438 112.687 90.5033 119.929L71.5976 149.035C69.6405 152.048 66.2457 153.813 62.6552 153.684Z" fill="#97FCE4"/>
</svg>
