<svg width="828" height="126" viewBox="0 0 828 126" fill="none" xmlns="http://www.w3.org/2000/svg">
<path d="M269.249 79.2663L288.777 36.4674H305.079L264.735 118.211H248.903L261.775 94.2148L233.774 36.4674H249.959L269.249 79.2663ZM350.544 35.1782C356.408 35.1782 361.686 36.4676 366.377 39.0477C371.068 41.6278 374.782 45.2244 377.519 49.8373C380.333 54.372 381.74 59.65 381.74 65.6702C381.74 71.8466 380.333 77.2412 377.519 81.854C374.704 86.3886 370.951 89.9071 366.26 92.409C361.569 94.9109 356.33 96.1623 350.544 96.1623C345.384 96.1622 340.966 95.2629 337.292 93.4646C333.695 91.5882 330.763 89.1647 328.496 86.1937C326.229 83.1445 324.547 79.8217 323.453 76.2252C323.412 76.0925 323.374 75.9594 323.335 75.8268V118.211H308.09V36.4674H322.633L323.335 51.9485V53.7078C324.43 50.0332 326.112 46.8276 328.379 44.0912C330.646 41.2765 333.578 39.0867 337.174 37.523C340.849 35.9593 345.306 35.1782 350.544 35.1782ZM421.689 35.1782C429.351 35.1782 435.723 36.3895 440.805 38.8131C445.887 41.2368 449.64 44.9117 452.064 49.8373C454.566 54.6848 455.622 60.9012 455.231 68.4852H399.641C400.032 71.456 401.127 74.1535 402.925 76.5771C404.801 79.0007 407.303 80.9159 410.431 82.3232C413.636 83.7305 417.428 84.4344 421.807 84.4344C426.654 84.4344 430.681 83.6132 433.886 81.9713C437.17 80.2513 439.281 78.0623 440.219 75.4042H454.996C454.371 79.3916 452.689 82.949 449.953 86.0764C447.294 89.2038 443.659 91.6664 439.046 93.4646C434.433 95.2628 428.804 96.1622 422.158 96.1623C414.731 96.1623 408.163 94.9891 402.456 92.6436C396.748 90.2198 392.292 86.7406 389.086 82.2059C385.881 77.6712 384.277 72.1986 384.277 65.7875C384.277 59.3763 385.841 53.9029 388.969 49.3681C392.096 44.7553 396.436 41.2368 401.987 38.8131C407.616 36.3895 414.184 35.1782 421.689 35.1782ZM528.541 35.1782C534.326 35.1782 539.135 36.0376 542.966 37.7575C546.797 39.3994 549.651 41.7457 551.527 44.7949C553.482 47.7659 554.46 51.206 554.46 55.1153H540.972C540.347 52.2224 539.097 50.1499 537.22 48.8989C535.344 47.5698 532.45 46.9061 528.541 46.9061C524.71 46.9061 521.817 47.4916 519.862 48.6644C517.908 49.8371 516.931 51.4404 516.931 53.4732C516.931 55.1151 517.517 56.4056 518.689 57.3438C519.94 58.2038 521.739 58.9066 524.085 59.4539C526.508 60.0012 529.519 60.5878 533.115 61.2133C536.164 61.8387 539.057 62.5426 541.793 63.3245C544.608 64.1063 547.111 65.123 549.3 66.374C551.489 67.5467 553.209 69.1492 554.46 71.1818C555.789 73.1364 556.453 75.6391 556.453 78.6883C556.453 82.441 555.358 85.6076 553.169 88.1876C551.058 90.7676 548.009 92.761 544.022 94.1683C540.034 95.4975 535.265 96.1623 529.714 96.1623C524.788 96.1622 520.528 95.6538 516.931 94.6375C513.413 93.5429 510.48 92.1753 508.135 90.5334C505.789 88.8134 503.952 87.0146 502.623 85.1381C501.372 83.1837 500.512 81.3465 500.043 79.6266C499.574 77.9066 499.417 76.4988 499.573 75.4042H513.647C514.507 78.0623 516.266 80.2513 518.924 81.9713C521.66 83.6132 525.218 84.4343 529.596 84.4344C532.567 84.4344 534.874 84.1607 536.516 83.6134C538.158 83.0661 539.291 82.2839 539.917 81.2676C540.542 80.1731 540.855 78.9617 540.855 77.6327C540.855 75.9909 540.348 74.7395 539.331 73.8794C538.315 72.9412 536.751 72.1982 534.64 71.6509C532.529 71.1037 529.832 70.5953 526.548 70.1262C523.264 69.5789 520.098 68.9151 517.048 68.1333C513.999 67.3515 511.301 66.3348 508.956 65.0838C506.61 63.7547 504.734 62.1122 503.327 60.1576C501.998 58.1249 501.333 55.6623 501.333 52.7695C501.333 49.9549 501.998 47.4532 503.327 45.264C504.734 43.0749 506.649 41.237 509.073 39.7515C511.575 38.266 514.468 37.1319 517.751 36.3501C521.113 35.5683 524.71 35.1783 528.541 35.1782ZM720.041 35.1782C726.921 35.1783 732.824 36.1548 737.75 38.1094C742.675 39.9859 746.546 42.7231 749.36 46.3196C752.253 49.916 753.934 54.2549 754.403 59.3366H740.447C739.118 55.4275 736.655 52.3783 733.058 50.1891C729.462 48.0002 725.123 46.9062 720.041 46.9061C715.976 46.9061 712.262 47.6091 708.9 49.0162C705.616 50.4236 702.957 52.5352 700.924 55.3499C698.97 58.0863 697.993 61.5657 697.993 65.7875C697.993 69.9313 698.969 73.4106 700.924 76.2252C702.879 78.9617 705.538 81.0331 708.9 82.4405C712.262 83.7695 715.976 84.4344 720.041 84.4344C725.514 84.4343 729.97 83.3394 733.41 81.1503C736.928 78.9611 739.314 75.8339 740.565 71.7682H754.52C754.129 76.8502 752.488 81.2289 749.595 84.9035C746.78 88.5782 742.871 91.3927 737.867 93.3473C732.863 95.2237 726.921 96.1622 720.041 96.1623C712.848 96.1623 706.397 95.0282 700.69 92.7609C695.06 90.4153 690.603 87.0142 687.32 82.5578C684.114 78.0231 682.512 72.433 682.512 65.7875C682.512 59.1418 684.114 53.551 687.32 49.0162C690.603 44.4815 695.06 41.0414 700.69 38.6959C706.397 36.3503 712.848 35.1782 720.041 35.1782ZM635.641 35.1782C642.364 35.1782 647.76 36.5458 651.825 39.2823C655.969 41.9406 658.979 45.5763 660.856 50.1891C661.352 51.4097 661.781 52.6695 662.146 53.9667V36.4674H677.392V94.7548H663.201C663.199 94.7421 663.082 93.999 662.849 92.5263C662.693 90.9627 662.537 89.0082 662.38 86.6629C662.224 84.3175 662.146 82.0111 662.146 79.7439V75.8268C662.107 75.9593 662.069 76.0925 662.028 76.2252C660.934 79.7435 659.252 83.0272 656.985 86.0764C654.718 89.0474 651.747 91.4709 648.072 93.3473C644.397 95.1456 639.98 96.045 634.819 96.045C629.034 96.0449 623.757 94.7936 618.988 92.2917C614.296 89.7116 610.544 86.1542 607.729 81.6195C604.992 77.0066 603.624 71.6903 603.624 65.6702C603.624 59.4936 605.031 54.1374 607.846 49.6027C610.661 45.0681 614.453 41.5496 619.222 39.0477C624.069 36.4677 629.542 35.1783 635.641 35.1782ZM157.598 50.1891H213.305V18.8761H228.903V94.7548H213.305V63.2072H157.598V94.7548H142V18.8761H157.598V50.1891ZM498.357 49.0162C493.979 49.0163 490.187 49.8766 486.981 51.5966C483.776 53.2385 481.196 55.272 479.241 57.6956C477.848 59.423 476.754 61.1112 475.957 62.7591V94.7548H460.712V36.4674H475.957V54.177C476.504 52.3005 477.326 50.3062 478.42 48.1952C479.515 46.0061 480.962 43.9345 482.76 41.9799C484.558 39.9472 486.747 38.3048 489.327 37.0538C491.907 35.8029 494.917 35.1783 498.357 35.1782V49.0162ZM588.406 36.4674H603.418V48.3125H588.406V94.7548H573.16V48.3125H558.148V36.4674H573.16V20.5181H588.406V36.4674ZM776.164 94.7548H760.918V13.0127H776.164V94.7548ZM795.761 62.5161L828 94.7548H808.649L776.515 62.0343L804.545 36.4674H825.303L795.761 62.5161ZM345.618 46.9061C341.475 46.9062 337.682 47.6481 334.242 49.1335C330.88 50.619 328.222 52.7699 326.268 55.5844C324.313 58.3209 323.335 61.6829 323.335 65.6702C323.335 69.423 324.235 72.7069 326.033 75.5215C327.831 78.258 330.412 80.4076 333.774 81.9713C337.136 83.5349 341.084 84.317 345.618 84.3171C349.762 84.3171 353.36 83.535 356.409 81.9713C359.536 80.4076 361.921 78.2578 363.562 75.5215C365.282 72.7069 366.143 69.423 366.143 65.6702C366.143 60.0409 364.344 55.5059 360.747 52.0658C357.229 48.6257 352.186 46.9061 345.618 46.9061ZM639.746 47.0223C633.256 47.0223 628.213 48.7429 624.616 52.183C621.02 55.545 619.222 60.041 619.222 65.6702C619.222 69.4231 620.082 72.7069 621.802 75.5215C623.523 78.2578 625.907 80.4077 628.956 81.9713C632.083 83.535 635.68 84.3171 639.746 84.3171C644.359 84.3171 648.346 83.535 651.708 81.9713C655.07 80.4076 657.65 78.2187 659.448 75.4042C661.246 72.5896 662.146 69.3449 662.146 65.6702C662.146 61.6829 661.207 58.3209 659.331 55.5844C657.533 52.7698 654.953 50.6582 651.591 49.2508C648.307 47.7653 644.359 47.0223 639.746 47.0223ZM420.986 46.7888C415.356 46.7888 410.782 48.0391 407.264 50.541C403.746 52.9646 401.478 55.9749 400.462 59.5712H440.102C439.711 55.6622 437.834 52.5737 434.473 50.3064C431.189 47.9609 426.693 46.7888 420.986 46.7888Z" fill="#F8F6F0"/>
<path d="M12.0259 125.88C5.63902 125.65 0.580078 120.406 0.580078 114.015V52.1754C0.580078 46.5783 3.1093 41.2809 7.46177 37.7619C14.1107 32.3863 23.574 32.2563 30.3681 37.4473L44.4078 48.1744C50.4931 51.8722 60.2922 48.0842 66.3775 39.6738L88.5064 5.6449C90.6817 2.29977 94.4012 0.281738 98.3915 0.281738C104.904 0.281738 110.183 5.56093 110.183 12.0731V74.253C110.183 79.8482 107.652 85.1433 103.299 88.6579C96.6517 94.0237 87.1964 94.1447 80.4142 88.9509L66.3552 78.1843C60.2475 74.4864 50.4483 78.2745 44.363 86.6848L22.4098 120.482C20.1372 123.981 16.1951 126.03 12.0259 125.88Z" fill="#97FCE4"/>
</svg>
