<svg width="166" height="28" viewBox="0 0 166 28" fill="none" xmlns="http://www.w3.org/2000/svg">
  <defs>
    <linearGradient id="jg-l1" x1="19" y1="3" x2="7" y2="23" gradientUnits="userSpaceOnUse">
      <stop offset="0%" stop-color="#40FFB0"/>
      <stop offset="100%" stop-color="#1ACD55"/>
    </linearGradient>
    <linearGradient id="jg-l2" x1="3" y1="19" x2="15" y2="27" gradientUnits="userSpaceOnUse">
      <stop offset="0%" stop-color="#3DFF8F"/>
      <stop offset="100%" stop-color="#15A840"/>
    </linearGradient>
  </defs>
  <!-- Large leaf -->
  <path d="M19 3 C22 7,22 14,18 19 C15 23,9 25,6 22 C3 19,4 13,7 8 C10 4,16 2,19 3Z" fill="url(#jg-l1)"/>
  <path d="M19 3 C16 8,12 14,7 23" stroke="rgba(0,20,10,0.55)" stroke-width="1.4" stroke-linecap="round" fill="none"/>
  <!-- Small leaf -->
  <path d="M3 19 C2 23,5 27,10 27 C14 27,16 24,15 21 C13 18,4 17,3 19Z" fill="url(#jg-l2)"/>
  <path d="M3 19 C7 22,12 23,15 21" stroke="rgba(0,20,10,0.45)" stroke-width="1" stroke-linecap="round" fill="none"/>
  <!-- Wordmark -->
  <text x="28" y="19.5" font-family="'Geist','Helvetica Neue',Arial,sans-serif" font-size="13.5" font-weight="700" fill="white" letter-spacing="0.04em">JOLLY GREEN</text>
</svg>
