<svg width="571" height="136" viewBox="0 0 571 136" fill="none" xmlns="http://www.w3.org/2000/svg">
<path fill-rule="evenodd" clip-rule="evenodd" d="M31.2726 81.3604C31.2726 61.9026 47.217 46.1642 66.8416 46.1642C86.466 46.1644 102.411 61.9027 102.411 81.3604C102.41 100.514 86.9603 116.064 67.7586 116.545L66.8416 116.557C47.217 116.557 31.2727 100.818 31.2726 81.3604ZM95.127 80.6407C94.7469 65.8038 82.6461 53.7966 67.5726 53.4193L66.8416 53.41C51.1854 53.41 38.5468 65.9533 38.5468 81.3604L38.5552 82.0802C38.9416 97.1562 51.43 109.311 66.8416 109.311C82.4975 109.311 95.1363 96.7673 95.1364 81.3604L95.127 80.6407Z" fill="#E6E9F0"/>
<path d="M67.002 0C104.005 6.13987e-05 134.002 29.997 134.002 67C134.002 80.4414 130.044 92.9584 123.23 103.449C142.051 66.8016 104.532 26.9862 67.002 26.9861C29.4722 26.9861 -8.0472 66.8016 10.7742 103.449C3.95994 92.9584 0.00195312 80.4414 0.00195312 67C0.00195312 29.9969 29.9989 0 67.002 0ZM67.002 7.44444C40.3445 7.44444 17.7777 24.9586 10.1808 49.1077C10.7575 48.3265 11.3517 47.558 11.961 46.8022C24.9325 30.7133 45.7421 19.5417 67.002 19.5417C88.2618 19.5417 109.071 30.7133 122.043 46.8022C122.652 47.5579 123.246 48.3267 123.822 49.1077C116.225 24.9588 93.6592 7.44449 67.002 7.44444Z" fill="#E6E9F0"/>
<path d="M315.746 55.8876C327.043 55.8876 332.568 61.264 332.568 70.6934V97.2447H324.075V92.1992H323.663C321.271 96.0867 316.653 98.2373 310.799 98.2373C301.975 98.2373 297.192 93.688 297.192 86.9054C297.192 80.1229 301.151 76.1526 310.634 74.581L318.467 73.2576C322.426 72.5959 323.663 72.0996 323.663 70.528C323.663 65.6479 321.271 62.5874 315.746 62.5874C310.386 62.5874 307.583 65.4824 307.253 69.7009H298.759C299.254 61.3467 305.686 55.8876 315.746 55.8876ZM223.671 56.4393V79.7876C223.671 87.8187 227.144 90.5509 232.271 90.5509C237.977 90.5509 242.112 85.666 242.112 77.3037V56.4393H251.043V96.8434H242.525V90.9649H242.195C239.879 95.5186 235.744 97.8369 229.956 97.8369C221.852 97.8369 214.741 93.5316 214.741 80.9467V56.4393H223.671ZM393.288 38.8867C406.932 38.8867 415.698 46.5867 417.93 58.2608H408.421C406.436 51.0576 401.392 47.1663 393.288 47.1663C382.207 47.1663 375.013 55.8598 375.013 68.3618C375.013 80.6155 382.29 89.5574 393.04 89.5574C401.805 89.5574 406.436 85.666 408.421 78.4628H417.93C415.698 90.137 406.684 97.8369 392.957 97.8369C376.253 97.8369 365.338 85.5004 365.338 68.3618C365.338 51.4716 376.501 38.8867 393.288 38.8867ZM461.719 56.4393V79.7876C461.719 87.8187 465.192 90.5509 470.319 90.5509C476.025 90.5509 480.159 85.666 480.159 77.3037V56.4393H489.09V96.8434H480.573V90.9649H480.242C477.927 95.5186 473.792 97.8369 468.003 97.8369C459.9 97.8369 452.788 93.5316 452.788 80.9467V56.4393H461.719ZM511.811 55.4458C521.156 55.4458 528.515 59.2544 528.515 67.6995H520.163C520.163 63.7253 516.607 61.7382 511.811 61.7382C507.098 61.7382 503.542 63.7253 503.542 67.2855C503.542 70.0177 505.444 71.4252 510.24 72.2532L517.682 73.4951C524.05 74.5715 529.59 77.0553 529.59 84.5897C529.59 93.4488 522.148 97.8369 511.398 97.8369C501.309 97.8369 493.95 93.6971 493.95 85.252H502.467C502.467 89.723 507.015 91.5445 511.398 91.5445C517.6 91.5445 520.659 89.3918 520.659 85.666C520.659 82.6854 518.592 81.4435 514.54 80.7811L507.098 79.4564C500.896 78.4628 494.942 75.979 494.942 68.3618C494.942 60.0823 502.302 55.4458 511.811 55.4458ZM182.344 39.8803V88.8122H209.881V96.8434H173V39.8803H182.344ZM277.32 55.4458C285.341 55.4458 292.452 59.7511 292.452 72.336V96.8434H283.522V73.4951C283.522 65.464 280.131 62.7318 274.922 62.7318C269.216 62.7318 264.833 67.6167 264.833 75.7306V96.8434H255.902V56.4393H264.502V62.3178H264.833C267.148 57.764 271.448 55.4458 277.32 55.4458ZM357.162 55.4458C358.816 55.4458 360.718 55.6942 362.785 57.1017L360.47 65.05C358.651 64.1393 357.079 63.7253 355.508 63.7253C349.472 63.7253 346.577 69.6038 346.577 76.6413V96.8434H337.647V56.4393H346.247V62.3178H346.495C348.479 58.0124 352.035 55.4458 357.162 55.4458ZM442.305 55.4458C443.959 55.4458 445.861 55.6942 447.928 57.1017L445.613 65.05C443.794 64.1393 442.223 63.7253 440.651 63.7253C434.615 63.7253 431.721 69.6038 431.721 76.6413V96.8434H422.79V56.4393H431.39V62.3178H431.638C433.623 58.0124 437.178 55.4458 442.305 55.4458ZM543.381 36.2373L543.381 48.955L543.38 49.9226C543.375 52.8899 543.338 57.6982 543.05 62.3178H543.381C545.696 57.764 549.996 55.4458 555.867 55.4458C563.888 55.4458 571 59.7511 571 72.336V96.8434H562.069V73.4951C562.069 65.464 558.679 62.7318 553.469 62.7318C547.681 62.7318 543.381 67.8651 543.381 75.8134V96.8434H534.45V36.2373H543.381ZM324.109 76.6774C323.278 77.6749 321.867 78.2568 319.957 78.5893L312.981 79.753C308.248 80.5012 306.421 82.5793 306.421 85.738C306.421 89.063 308.746 91.3074 313.313 91.3074C319.043 91.3074 324.109 87.733 324.109 80.418V76.6774Z" fill="#F5FAFA"/>
</svg>
