<svg width="132" height="27" viewBox="0 0 132 27" fill="none" xmlns="http://www.w3.org/2000/svg">
<path d="M35.0907 11.9198L25.6987 22.127L16.1859 11.9578L22.4156 15.1551L23.9335 15.9354L25.1985 14.7269L25.6498 14.2955L26.0005 14.6571L27.2798 15.9735L28.8639 15.1519L35.0907 11.9229M47.694 2.23269L27.7657 12.5637L25.7131 10.4575L23.5052 12.5637L3.3728 2.23269L25.7131 26.1173L47.694 2.23269Z" fill="white" style="fill:white;fill-opacity:1;"/>
<path d="M55.4182 6.82292H59.9864L63.8469 16.2429L67.7075 6.82292H71.8964L66.2895 20.05H61.2742L55.4182 6.82292Z" fill="white" style="fill:white;fill-opacity:1;"/>
<path d="M73.5748 17.756L72.6351 20.05H68.6925L74.2682 6.82292H79.4647L85.2216 20.05H81.0157L80.0591 17.756H73.5748ZM74.7805 14.8397H78.8534L76.7929 9.89785L74.7805 14.8397Z" fill="white" style="fill:white;fill-opacity:1;"/>
<path d="M89.5888 20.05H85.7452V6.82292H89.77L96.6646 14.7512V6.82292H100.491V20.05H96.6816L89.5888 11.9783V20.05Z" fill="white" style="fill:white;fill-opacity:1;"/>
<path d="M101.188 10.1663V6.82292H115.834V10.1663H110.474V20.05H106.548V10.1663H101.188Z" fill="white" style="fill:white;fill-opacity:1;"/>
<path d="M129.774 20.0713H125.206L121.345 10.6513L117.485 20.0713H113.296L118.903 6.84427H123.918L129.774 20.0713Z" fill="white" style="fill:white;fill-opacity:1;"/>
</svg>
