<svg xmlns="http://www.w3.org/2000/svg" xml:space="preserve" id="Layer_6" x="0" y="0" viewBox="0 0 1000 1000"><style>.st2{fill:#f60100}.st3{fill:#febd86}.st6{fill:#172529}.st8{fill:#fdfcf0}.st10{fill:none;stroke:#000;stroke-miterlimit:10}.st11{fill:#f5c10a}.st12{fill:#cc966a}.st15{fill:#da9e6c}.st16{fill:#bb930e}.st19{fill:#8d750d}.st21{fill:#97989a}</style><g id="Layer_3"><path d="m428 493-5 3 7 57 9 31s26 69 27 70 37 60 37 60l5-28 14-42 27.1-66.3 10.1-35.3S564 530 563 531s-39.4-3.7-39.4-3.7l-47.5-7.2z" style="fill:#fcf5f0"/><path d="m253 445-30 86 14 16 32 17 43 21 19 9 6 138 290-9 9-88 49-7 77-24 42-28-34-81-17 7s-27 12-39 13-95-4-100-6l-52 24-14 46s-20 50-23 57-23 76-23 76-43-71-50-92-34-98-28-127l-8-20s-5 8-8 9-19 6-19 6l-9-4-1 3s-11 0-19-2-60-8-71-17c-13-7-36-23-36-23" style="fill:#1d2e35"/><path d="m467 646 13-46 5-17 6-9 8 2 5 9 9 47 5.9 23.2L502 712l-30-49z" class="st2"/><path d="m477 542 .2.5L485 567l3 8 11 1 5-6 6-16 6-16 1-6-19-4-15 3" class="st2"/><path d="m797 497 2-6 5-11 4-8 2-14v-8l4-3 5 1 4 4 1 10-1 12 2-1 7-8 7-8 4-6 5-16 9-15 6-5 5-4 3 1 2 2 1 4-1 5-2 4-5 5 1 15v2l4-2 9-9 13-10 12-8 5-3 3-1 2 1 1 2 9-1 10 2 4 5-2 4s-1 4-2 4-9 4-9 4l-8 7-9 9-8 10-13 15-6 10-5 8-7 12-7 7-9 6-10 7-7 4-7 3-6 1zM222 452l-3-5-7-12-2-10v-10l-1-9-4-2h-4l-4 3-1 5v21l-2-1-8-7-9-11-4-11v-4l-4-10-9-12-7-6-4-1-3 2-1 4 4 9 3 6-1 13-1 2-8-7-18-16-11-8-7-1-3 2-1 2-7-1-7 1-7 3-2 3 3 7 7 4 6 2 5 3 19 21 7 9 7 12 3 5 1 4 2 2 1 1 2 1 10 12 10 9 11 9 8 4 7 3 6 2h5l24-42" class="st3"/><path d="M825 482s8-15 13-18 5-13 5-13l-4 7-8 8-5 6-3 2v6z" style="fill:#c99469"/><path d="M476 614s-4 40 11 48 20 29 20 29-2 24-4 23-23-37-23-37l-14-31z" style="fill:#9f0201"/><path d="M341 483s19 29 46 25 31-22 31-22l-6-3-28 1-7 3z" class="st6"/><path d="M360 534s13 43 18 78 26 108 23 118l-46.5 1.3L344 572z" style="fill:#1b2930"/><path d="M792 553s7 18-32 33-107 33-136 8c0 0-9-10-11 35s-3 94-3 94l16-1 11-85 41-9 78-20 32-18 16-14-9-23zM225 529c2 0 25 9 36 17s46 34 58 26 19-21 26-5 2 68 8 101 9 63 9 63l-27 1-2-84-4-55-21-10-49-23-31-22-6-7z" class="st6"/><path d="m187 515 1 5 9 6 9 9 10 10 24-61 13-40-8-6-8-5-3 3s-29 45-29 47-18 32-18 32M769 490c2 0 40 99 40 99l1-3 4-5s6-7 7-7 7-8 7-8l4-2 7-4-2-5-24-35-29-37s-3-1-4 0-7 4-7 4z" class="st8"/><path d="M432 498s7 58 25 76l-25-35-9-5v-30l2-14 7 9z" style="fill:#c6c7c3"/><path d="M330.5 594.5c-.5 1-7.2-1.6-17.6-6.4-5.2-2.4-11.4-5.3-18.2-8.6-6.8-3.2-14.3-6.9-22.1-10.4-3.9-1.7-7.8-3.5-11.3-4.6-1.1-.4-2.1-.7-3.1-1.1-1.1-.4-2.1-.9-3.1-1.4-.5-.2-1-.5-1.5-.7-.5-.3-.9-.5-1.3-.8-.9-.5-1.8-1-2.6-1.6-6.6-4.5-11.7-9.2-15.8-13.4-8.1-8.3-12.2-14.3-11.4-15.1s6.3 3.8 15.2 10.8c4.4 3.5 9.8 7.6 15.9 11.3.8.5 1.6.9 2.4 1.3l1.2.6c.4.2.8.4 1.2.5.8.3 1.6.8 2.4 1 .4.1.8.3 1.2.4l.6.2.8.2c4.4 1.3 8.3 3 12.4 4.8 8.1 3.7 15.5 7.5 22.2 11.2 6.7 3.6 12.6 7.1 17.5 10.1 9.8 6.4 15.5 10.7 15 11.7M383.5 486.1c0 .2-1.9.8-5.5 1s-8.8 0-15-1c-12.5-1.9-29.6-4.8-48.5-8.3-4.7-.9-9.3-1.7-13.8-2.6-2.3-.4-4.5-1-6.7-1.7s-4.3-1.6-6.2-2.7c-3.8-2.1-7-4.6-10-6.8s-5.7-4.3-8.2-6.2c-10-7.6-16.1-12.6-15.7-13 .3-.4 6.9 3.7 17.4 10.7 2.6 1.8 5.5 3.7 8.5 5.8 3.1 2.1 6.2 4.4 9.8 6.2 1.8.9 3.6 1.7 5.6 2.3s4.1 1 6.3 1.5c4.4.8 9.1 1.6 13.8 2.5 18.9 3.5 36 6.8 48.3 9.4 6.1 1.3 11.1 2 14.6 2.2 3.3.5 5.3.4 5.3.7"/><path d="M187.5 517.5c.1 0 .2.4.4 1.1s.7 1.9 1.8 2.4l-.2-.1c.6 0 1 .2 1.5.4s.9.4 1.3.7c.9.5 1.8 1.2 2.8 1.9 1.9 1.4 4 3.2 6.4 5.2q3.45 3 7.5 6.9c1.3 1.3 2.7 2.6 4.2 4 .7.7 1.4 1.4 2.2 2.1.2.2.4.4.7.6.1-.2.1-.4.2-.6v-.1l.1-.3c.1-.4.3-.7.4-1.1.5-1.5 1.1-3 1.6-4.5 1.1-3.1 2.2-6.2 3.4-9.5 2.4-6.6 4.9-13.6 7.6-20.9 5.3-14.7 11.1-30.8 17.2-47.7.8-2.2 1.5-4.3 2.3-6.5.4-1.1.7-2.1 1.1-3.2.2-.6.3-1 .5-1.5l.2-.7v-.3c0-.4-.4-1.2-1-2-.6-.7-1.3-1.5-2-2.2-1.5-1.4-3.2-2.6-5-3.8-1.8-1.1-3.6-2.2-5.4-3.1l-.4-.2h-.1l-.4.5-.5.6-.9 1.2c-2.4 3.3-4.6 6.8-6.7 10.1-8.5 13.5-15.8 25.8-22.1 36.2-6.2 10.3-11.3 18.7-14.8 24.5-3.6 5.7-5.6 8.9-5.9 8.7-.2-.1 1.4-3.5 4.5-9.5s7.8-14.6 13.7-25.1 13-23 21.4-36.7c2.1-3.4 4.3-6.9 6.7-10.4l1-1.3.5-.7.3-.3.4-.4c.6-.7 1.5-1.5 2.4-1.5.5 0 .9.2 1.4.4l.7.3.4.2c2 1 3.9 2.1 5.8 3.3s3.7 2.6 5.5 4.1c.9.8 1.7 1.7 2.5 2.7.4.5.8 1.1 1.1 1.7s.6 1.4.7 2.3c.1.4 0 1-.1 1.4l-.3.9c-.2.6-.4 1.2-.5 1.7-.4 1.1-.7 2.2-1.1 3.3-.8 2.2-1.5 4.3-2.3 6.5-6 16.9-12 33-17.5 47.6-2.8 7.3-5.4 14.3-7.9 20.8q-4.2 10.95-7.8 20.4c-2-2.1-4-4.2-5.9-6.2-1.4-1.4-2.7-2.8-4-4.1l-7.2-7.2c-2.2-2.1-4.2-4-5.9-5.5-.9-.8-1.7-1.4-2.5-2-.8-.5-1.6-1-2.1-1.1h-.2c-.8-.5-1.3-1.1-1.5-1.7s-.3-1.1-.4-1.5c0-.8.1-1.2.2-1.2"/><path d="M306.5 731.5h1" class="st10"/><path d="M770.5 494.5c.2.5-7.8 4.6-21.1 10.2-6.7 2.8-14.7 6.1-23.7 9.3-2.3.8-4.9 1.5-7.4 1.9-2.5.5-5.1.7-7.8.9-5.3.4-10.7.6-16.3.5-11.1-.1-21.6-.7-31.2-1.4s-18.1-1.7-25.3-2.5c-14.4-1.8-23.2-3.4-23.1-3.9.1-.6 9 .1 23.4 1.1 7.2.5 15.8 1.1 25.3 1.7 9.5.5 20 1 31 1.1 5.5 0 10.8-.1 15.9-.4 5.1-.4 10-.9 14.3-2.4 9-3.1 17.1-6 23.9-8.5 13.5-5 21.9-8.1 22.1-7.6"/><path d="M809.5 586.5c-.2-.2 2.2-3 6.7-7.9 2.2-2.5 5-5.5 8-9 .8-.9 1.6-1.8 2.3-2.8q1.2-1.65 3-3c2.3-1.8 5-3 7.8-4.1l.3-.1c.1-.1.2 0 .2-.2 0-.1-.1-.2-.1-.3l-.2-.4c-.7-1.3-1.6-2.6-2.5-4-1.8-2.7-3.7-5.4-5.7-8.3-4-5.7-8.4-11.7-13.1-18-9.3-12.6-19.6-26.4-30.7-40.7-.7-.9-1.4-1.8-2.1-2.6-.4-.5-.3-.3-.5-.4-.1-.1-.4-.1-.8-.1-.8.1-1.7.3-2.6.7s-1.9.8-2.8 1.3c-1.8 1-3.6 2.2-5.1 3.5l-.1.1c0 .2.1.5.2.7l.9 3c2.7 8 5.8 15.6 8.7 22.9 5.8 14.6 11.1 27.7 15.5 38.7s8 19.9 10.4 26.1 3.6 9.7 3.3 9.8-1.9-3.2-4.8-9.2c-2.8-6-6.8-14.8-11.6-25.6-4.8-10.9-10.4-23.9-16.3-38.4-3-7.3-6.1-14.9-9-23-.4-1-.7-2.1-1-3.2-.1-.3-.1-.5-.2-.9-.1-.5-.2-1.1-.2-1.6s.2-1 .5-1.4l.6-.6.5-.5c1.8-1.5 3.7-2.7 5.7-3.9 1-.6 2.1-1.1 3.2-1.6s2.3-.9 3.8-1c.7-.1 1.6 0 2.5.3.5.2.9.4 1.3.8.5.4.6.6.8.8.8.9 1.5 1.8 2.2 2.7 11.2 14.3 21.4 28.2 30.5 41 4.6 6.4 8.9 12.5 12.8 18.3 2 2.9 3.8 5.7 5.6 8.5.9 1.4 1.7 2.8 2.5 4.2l.2.3.2.4c.1.3.3.6.4.9.2.6.3 1.2.2 1.7 0 .3-.2.5-.4.7l-.3.2c-.1.1-.2.2-.3.2l-1.8.6c-2.7.9-5.2 2-7.3 3.5-1 .7-1.9 1.5-2.6 2.4-.8 1-1.7 1.9-2.5 2.8-3.3 3.4-6.2 6.3-8.6 8.6-4.6 4.9-7.4 7.3-7.6 7.1"/><path d="M803.5 576.5c.3.4-2.8 3.5-9.1 8.5-6.3 4.9-15.5 11.8-27.8 19.3-3.1 1.8-6.3 3.7-9.9 5.5-3.7 1.8-7.5 3.2-11.5 4.7-8 2.8-16.6 5.3-25.7 7.8-18.2 4.9-38.3 9.7-59.5 14.3-2.7.6-5.3 1.1-7.9 1.7-2.7.6-5.3 1.1-7.9 1.6-1.3.3-2.6.5-3.9.8l-1.9.4c-.3-.5-.6-1.1-.9-1.7-.9-1.8-1.8-3.6-2.6-5.4-1.2-2.4-2.3-4.7-3.4-7-4.4-9.4-8.1-18.7-11-27.7-5.9-18.1-8.9-35.2-9.6-49.6s.6-26.1 2.3-34 3.7-12 4.2-11.8-.4 4.4-1.1 12.3c-.7 7.8-1.2 19.2.2 33.1s4.8 30.3 10.9 47.7c3 8.7 6.8 17.7 11.1 26.7 1.1 2.2 2.3 4.5 3.4 6.8l.8 1.6v.1c5.1-1.1 10.3-2.2 15.5-3.3 21.1-4.5 41.2-9.1 59.3-13.6 9-2.3 17.6-4.5 25.5-7 3.9-1.2 7.7-2.5 11-3.9 3.4-1.5 6.7-3.2 9.8-4.8 12.4-6.6 22-12.8 28.8-16.9 6.8-4.4 10.6-6.6 10.9-6.2"/><path d="M636.2 681.7c-1.8 14.8-4.4 28.1-7 37.6-.3 1.1-.6 2.2-.9 3.2l-5.1.2c1-9.8 3-24.9 5-41.9 3.5-29.2 5.5-53.1 7.8-53.1 1.1 0 2 6.1 2.2 15.9.3 9.7-.3 23.2-2 38.1M829.3 489.1c0 .1-1.5-.4-3.3-2.5s-3.5-5.9-3.7-10.8c-.1-2.4.1-5.1.4-7.9s.7-5.7.7-8.7c-.1-3-.7-6.2-2.8-8.5-1-1.1-2.4-2-3.9-2.3-1.4-.3-3.1.1-4.3 1-1.3.9-1.8 2.2-1.8 3.9v2.6c0 .9 0 1.8-.1 2.6-.1 3.5-.5 6.8-1.1 9.9-.3 1.6-.7 3.1-1.2 4.6-.5 1.4-1.1 2.8-1.7 4.1-1.2 2.5-2.3 4.9-3.3 7-2 4.3-3.7 7.7-4.9 10.1q-1.8 3.6-2.1 3.6c-.1-.1.4-1.4 1.4-3.9s2.5-6 4.4-10.4c.9-2.2 2-4.6 3.1-7.1.6-1.3 1.1-2.6 1.6-3.9.5-1.4.8-2.8 1-4.3.5-3 .8-6.3.9-9.7v-5.2c0-.9.2-2 .6-2.9.4-1 1.2-1.8 2-2.5 1.7-1.2 3.9-1.7 5.9-1.3s3.7 1.6 4.9 2.9c1.2 1.4 2.1 3.1 2.6 4.8s.6 3.4.7 5c0 3.3-.5 6.2-.8 9-.4 2.8-.7 5.3-.7 7.6 0 4.6 1.4 8.3 2.9 10.3 1.4 2 2.7 2.7 2.6 2.9"/><path d="M866.5 431.5c-.1-.1 1-1.1 2.7-3.1.8-1 1.6-2.4 2.3-4.1.3-.9.6-1.8.9-2.8s.6-2.1.7-3.2.1-2.3-.2-3.4-1.1-2.1-2.1-2.7-2.2-.6-3.3 0c-1.2.6-2.3 1.6-3.5 2.6-4.7 4.1-9.1 9.5-12.3 15.8-3.3 6.3-4.7 13.2-7.3 19.1-1.3 2.9-2.9 5.6-4.8 7.8-1.8 2.2-3.6 4.1-5.2 5.9-3.2 3.6-5.8 6.4-7.7 8.4s-3.5 2.4-3.5 2.3c-.1-.1 1.3-.8 3-2.8s4.1-5.1 7.2-8.8c1.5-1.8 3.2-3.8 5-6 1.7-2.1 3.2-4.6 4.4-7.5 2.5-5.7 3.8-12.6 7.2-19.3 3.4-6.6 8-12.2 12.9-16.3 1.2-1 2.4-2.1 3.9-2.8.8-.4 1.6-.6 2.5-.6s1.7.3 2.4.8c1.4.9 2.3 2.2 2.7 3.7.4 1.4.4 2.8.2 4s-.6 2.4-.9 3.4-.7 2-1.1 2.9c-.8 1.8-1.8 3.2-2.7 4.2-2 1.8-3.3 2.6-3.4 2.5"/><path d="M877.8 496.7c-.1 0-.3-.6-.5-1.9s-.6-3.2-.2-5.8c.2-1.3.8-2.6 1.5-4 .7-1.3 1.7-2.7 2.3-4.2.7-1.5.8-3.3-.1-5-.8-1.7-2.3-3.1-3.8-4.8-3-3.4-5.8-7.5-7.9-12.4s-3.6-10.4-3.9-16.4c-.1-.7-.1-1.5-.1-2.3s0-1.5.1-2.3c0-1.6.3-3 0-4.3s-1-1.8-2.5-2c-1.4-.2-2.9-.1-4.3.3-2.8.8-5.3 2.9-6.5 5.7-1.1 2.8-1.2 6.2-.9 9.4.6 6.6 3.2 12.7 5.8 18.4 1.3 2.9 2.7 5.7 3.9 8.6s1.9 6.1 1.7 9.2q-.15 2.4-1.2 4.5c-.7 1.4-1.7 2.6-2.9 3.5-2.3 1.9-5 2.8-7.5 3.7-5 1.6-9.6 3-13.9 4.3-4.2 1.4-8 2.7-10.8 4.6-2.9 1.8-4.5 4.5-5.3 6.7-.8 2.3-.9 4.2-.8 5.5s.2 2 .1 2c0 0-.3-.6-.5-1.9s-.3-3.3.5-5.8c.4-1.2.9-2.5 1.8-3.8q1.35-1.95 3.6-3.6c1.5-1.1 3.2-1.9 5.1-2.7s3.8-1.6 6-2.3c4.2-1.4 8.8-2.9 13.8-4.6 2.4-.8 4.9-1.8 6.9-3.5 2-1.6 3.2-4.1 3.4-6.8s-.5-5.6-1.6-8.4-2.6-5.6-3.9-8.5c-2.7-5.8-5.3-12.1-6-19.1-.2-1.7-.1-3.5-.1-5.2.1-1.7.4-3.5 1.1-5.1 1.5-3.3 4.4-5.8 7.7-6.8 1.7-.5 3.4-.6 5.1-.4.8.1 1.8.3 2.6 1 .8.6 1.3 1.6 1.5 2.5.4 1.8.1 3.4 0 4.8-.1.7-.1 1.5-.1 2.2v2.2c.2 5.7 1.6 11.1 3.6 15.9 2 4.7 4.6 8.8 7.4 12.1 1.4 1.7 3 3.2 3.9 5.2.5 1 .7 2 .7 3.1 0 1-.3 2-.7 2.9-.8 1.7-1.8 3-2.5 4.3-.8 1.3-1.3 2.5-1.6 3.6-.5 2.4-.3 4.3-.2 5.6.2 1.4.3 2.1.2 2.1"/><path d="M916.2 419.5c-.2 0-.1-1-1.2-1.9-.5-.4-1.4-.8-2.3-.8-1 0-2.1.4-3.3 1.1-4.7 2.9-11.3 7.1-18 12.4-3.4 2.6-6.5 5.3-9.2 7.7-2.8 2.4-5.1 4.8-7.3 6.7s-4.2 3.1-5.7 3.7-2.4.7-2.4.6.8-.5 2.1-1.3 3.1-2.1 5.1-4.1c2-1.9 4.3-4.4 7-7s5.8-5.3 9.3-7.9c6.8-5.3 13.5-9.4 18.6-12.1 1.3-.6 2.7-1 4-.9s2.3.7 2.8 1.4c.6.6.8 1.3.8 1.8z"/><path d="M825.5 535.5s.2-.1.6-.1c.4-.1 1.1-.1 1.9-.3 1.6-.3 4-1 6.9-2.4 2.9-1.3 6.2-3.3 9.9-5.9 3.7-2.5 7.8-5.7 12.4-9.1 2.3-1.7 4.7-3.4 7-5.5s4.4-4.4 6.4-7.1c4-5.3 7.4-11.6 11.2-18.1 3.7-6.6 8.2-13.2 13.4-19.7 5.1-6.5 10.9-12.8 16.7-19.3 2.9-3.2 6-6.4 9.6-8.9 3.5-2.5 7.3-4.4 10.7-6.5 1.7-1.1 3.2-2.3 4.2-3.8 1.1-1.5 1.4-3.2.9-4.8s-1.9-2.9-3.4-3.7c-1.6-.8-3.4-1.2-5.2-1.3-7.3-.5-14.4 1.2-20.3 4.1s-10.7 7-14.1 11.4c-1.7 2.2-3.1 4.5-4.4 6.7s-2.6 4.3-3.8 6.2c-2.5 3.8-4.8 7-6.7 9.6s-3.3 4.6-4.6 5.8c-1.2 1.2-2 1.6-2 1.6-.1-.1.7-.6 1.7-1.9 1.1-1.2 2.4-3.3 4.2-6 1.8-2.6 4-5.9 6.4-9.7 1.2-1.9 2.4-4 3.7-6.2s2.6-4.6 4.4-6.9c3.4-4.7 8.4-9 14.5-12.1s13.4-4.9 21.2-4.4c1.9.1 4 .5 5.9 1.5s3.6 2.6 4.3 4.7c.4 1.1.5 2.3.3 3.4s-.7 2.2-1.3 3.1c-1.3 1.8-3 3.2-4.8 4.3-3.6 2.2-7.3 4.1-10.7 6.5-3.4 2.3-6.3 5.4-9.3 8.6-5.8 6.5-11.5 12.8-16.6 19.1-5.1 6.4-9.6 12.8-13.3 19.4-3.8 6.5-7.3 12.8-11.4 18.2-2.1 2.7-4.3 5.1-6.7 7.2s-4.9 3.8-7.2 5.5c-4.6 3.3-8.8 6.4-12.6 8.9q-5.7 3.75-10.2 5.7c-3 1.3-5.4 1.9-7.1 2.1-.8.2-1.5.1-1.9.1-.6.1-.8 0-.8 0M857.5 481.1c-.3.1-.9-1.2-2.2-2.9-.7-.8-1.5-1.9-2.5-2.7s-2.4-1-4.1-1.1c-6.7-.7-12.2-.3-12.3-.9-.1-.5 5.5-1.8 12.5-1.1.9.1 1.7.2 2.6.4s1.8.7 2.4 1.3c1.3 1.1 2 2.3 2.6 3.3 1.1 2.2 1.3 3.6 1 3.7M600 517.7c.2 0 .2 2.1.1 5.9-.1 3.9-.4 9.6-.9 16.9-.3 3.7-.6 7.7-1.1 12.1q-.3 3.3-.9 6.9c-.2 1.2-.4 2.4-.7 3.7-.2.6-.3 1.3-.6 2-.2.7-.8 1.5-1.3 2-1.1 1-2.2 1.8-3.3 2.5l-3.6 2.1c-2.5 1.3-5 2.6-7.7 3.8-5.3 2.5-11 4.9-17 7.2l-.7-3c5-.4 10.2-.6 15.5-.7 2.7 0 5.4-.1 8.2.1.7.1 1.4.1 2.2.2.3 0 1 .2 1.6.3.6.2 1.2.4 1.6.8s.7.9.7 1.4v.6l-.1.2-.3.9-.2.5-.1.3-.2.5-.4 1c-4 10.6-8.9 21.5-14.4 32.6s-11.8 22.4-18.9 33.6c-3.6 5.6-7.4 11.2-11.4 16.7-4.1 5.5-8.4 10.9-13 16.2-4.7 5.4-9.6 10.5-14.7 15.2-2.5 2.4-5.2 4.6-7.8 6.9l-2 1.6-1.4 1.1c-.7.5-1.3 1.1-2 1.5s-1.2.4-1.6.4-1.1-.2-1.5-.6q-.45-.3-.6-.6c-.1-.1-.1-.2-.2-.3 0-.1 0-.3-.1-.4l-.2-1.7c.5-2.1 1-4.3 1.5-6.4.4-1.6.8-3.2 1.2-4.9l2.4-9.6c1.7-6.3 3.4-12.5 5.2-18.5 3.6-12 7.4-23.5 11.6-34.2 1.1-2.7 2.1-5.3 3.2-7.8.6-1.3 1.1-2.5 1.7-3.8s1.2-2.5 1.7-3.7c1.1-2.4 2.3-4.8 3.4-7.2 1.1-2.3 2.2-4.7 3.1-6.9 4-9.2 7.3-17.8 10.2-25.8 5.7-15.9 9.6-28.9 12.3-37.8 1.3-4.5 2.4-7.9 3.1-10.3.7-2.3 1.1-3.5 1.3-3.5.1 0-.1 1.3-.6 3.7q-.75 3.6-2.4 10.5c-2.3 9.1-5.9 22.2-11.2 38.3-2.7 8-5.9 16.8-9.8 26.1-1 2.3-2 4.7-3.1 7.1l-3.3 7.2c-.5 1.2-1.1 2.4-1.7 3.7-.5 1.2-1.1 2.5-1.6 3.8-1.1 2.5-2.1 5.1-3.1 7.8-4.1 10.6-7.7 22-11.3 34-1.7 6-3.4 12.1-5.1 18.4-.8 3.1-1.6 6.3-2.4 9.5l-1.2 4.8-.6 2.4-.2 1 .6-.5 2-1.6c2.6-2.2 5.1-4.4 7.6-6.7 5-4.7 9.8-9.6 14.4-15 4.5-5.2 8.8-10.6 12.8-16s7.8-11 11.3-16.5c7.1-11.1 13.4-22.2 18.9-33.2s10.4-21.7 14.5-32.2c.2-.5.4-1.1.6-1.6 0-.1.1-.2 0-.3 0 0-.1 0-.1-.1-.1 0 0 0-.4-.1-.6-.1-1.3-.2-1.9-.2-2.6-.2-5.3-.2-7.9-.2-5.3 0-10.4.3-15.4.5l-10.1.6 9.5-3.6c6-2.3 11.7-4.6 16.9-6.9 2.6-1.2 5.2-2.4 7.6-3.6 1.2-.6 2.4-1.3 3.5-1.9 1.1-.7 2.2-1.4 3-2.1.4-.4.6-.7.8-1.1.2-.5.4-1.1.5-1.6.3-1.2.5-2.3.7-3.5.4-2.3.8-4.6 1.1-6.8.6-4.4 1-8.4 1.4-12 .7-7.3 1.3-12.9 1.7-16.8.7-3.3.9-5.3 1.1-5.3"/><path d="M511.1 726.2c-3.5-6-8.4-14.6-14.4-25.1-6.1-10.8-13.4-23.7-21-38.2-3.8-7.3-7.8-14.9-11.4-22.9s-6.9-16.6-10.2-25.5c-3.4-8.9-6.6-17.5-9.5-25.9-3-8.4-5.6-16.6-8-24.4-2.3-7.8-4.3-15.3-5.9-22.4-.4-1.8-.7-3.5-1.1-5.2-.3-1.7-.7-3.4-1-5-.3-1.7-.6-3.3-.8-4.9-.1-.8-.3-1.6-.4-2.4s-.2-1.5-.3-2.3c-.4-3-.8-6-1.1-8.7-.2-2.8-.6-5.4-.7-7.8s-.3-4.7-.4-6.8-.1-4-.2-5.8c-.1-1.7-.1-3.3-.1-4.6s-.1-2.5-.1-3.4c-.1-1.8-.3-2.8-.6-2.9s-.6.9-1 2.7c-.2.9-.4 2-.6 3.4-.2 1.3-.5 2.9-.6 4.6-.2 1.8-.3 3.7-.5 5.8s-.2 4.5-.3 7 0 5.2.1 8c0 2.8.3 5.8.5 9 .1.8.1 1.6.2 2.4l.3 2.4c.2 1.6.4 3.3.6 5s.5 3.5.8 5.2c.3 1.8.5 3.6.9 5.4 1.4 7.3 3.1 15 5.3 23.1 2.2 8 4.8 16.4 7.7 24.9s6.1 17.3 9.5 26.2 6.7 17.7 10.6 26 8 16 12 23.2c8.1 14.5 15.8 27.2 22.7 37.7 3.4 5.2 6.6 9.9 9.4 14 1.4 2 2.8 3.9 4 5.6.7.9 1.3 1.8 1.9 2.6z"/><path d="M491.5 700.5c-.3.3-3.4-2.5-8.8-7.8s-13-13.1-22.3-22.8c-18.7-19.5-44.1-46.7-72-76.9-5.6-6.1-11-12-16.4-17.9q7.65-5.4 15-10.5c2-1.4 4-2.8 6-4.1.9-.7 1.9-1.3 2.8-2l.2-.1c.1 0 .2-.1.2-.1l-.2-.1-.2-.1-.3-.1-1.2-.2-4.8-.9q-5.1-.9-9.9-1.8l-1-.2-.5-.1h-.4v-.1c-.2-.7-.5-1.3-.7-2l-.3-1c-.1-.3-.1-.5-.2-.7l-.3-1.2c-.2-.8-.3-1.6-.4-2.4s-.1-1.6-.2-2.3c-.2-3.1-.1-6 0-8.8.4-5.7 1.2-10.9 2-15.7s1.8-9.2 2.8-13.1c3.9-15.7 7.2-24.6 7.8-24.4s-1.6 9.3-4.5 25.1c-.7 4-1.4 8.3-2.1 13-.6 4.7-1.2 9.8-1.4 15.2-.1 2.7-.1 5.5.2 8.2l.3 2.1c.1.7.2 1.4.4 2l.2 1 .1.4v.1l.1.2h.2c5.4.8 10.9 1.7 16.6 2.6.5.1 1 .2 1.5.2l3.5.6v.1c.5 1.3.8 2 1 2.4 0 0 .1.2.1.3l.1.3.2.7c.1.4.2.9.3 1.3v.1c-.1.1-.2.2-.3.2-.2.1-.4.3-.6.4-7.4 5.2-15.1 10.7-23.1 16.4 3.9 4.2 7.8 8.5 11.9 12.8 27.9 30.3 52.8 57.9 70.7 78.1 8.9 10.1 16.1 18.3 20.9 24.1 4.8 5.9 7.3 9.2 7 9.5M517.9 651.4c-.5.1-3.4-8.6-7.6-22.9-2-7.2-4.2-15.8-6.2-25.4-1-4.8-2-9.9-2.9-15.2-.2-1.3-.4-2.7-.7-4-.2-1.4-.4-2.6-.8-3.7s-.9-2-1.5-2.5-1.6-.8-2.8-.9h-1.9c-.7 0-1.4 0-1.9.1s-.9.2-1.3.4-.7.5-1.1.9c-.7.8-1.3 1.9-1.9 3.1-.6 1.1-1.1 2.3-1.6 3.5-1.9 4.8-3.3 9.8-4.7 14.5-1.3 4.7-2.5 9.2-3.6 13.4s-2.2 8.1-3.2 11.7c-3.9 14.3-6.6 23.1-7.2 23s1.2-9.2 4.4-23.7c.8-3.6 1.7-7.6 2.7-11.8 1-4.3 2-8.8 3.3-13.6s2.7-9.8 4.6-14.9c.5-1.3 1-2.6 1.7-3.9.6-1.3 1.3-2.6 2.4-3.9.6-.6 1.2-1.3 2.1-1.8.8-.5 1.8-.8 2.7-.9s1.6-.1 2.3-.2h2.3c1.6.1 3.5.5 5.1 1.7s2.4 2.9 2.8 4.4c.5 1.5.7 3 .9 4.3s.4 2.7.6 4c.9 5.3 1.8 10.3 2.7 15.1 1.8 9.6 3.7 18.2 5.3 25.5 3.6 14.5 5.5 23.5 5 23.7"/><path d="M477.4 542.2s.4 1.3 1.3 3.7c.9 2.3 2.1 5.7 3.7 9.9.8 2.1 1.6 4.4 2.5 6.8.9 2.5 1.9 5.1 3.1 7.7.2.3.3.7.5 1s.3.7.5.9c.4.5.3.5.9.6.3.1.7.1 1.1.1s.8.1 1.1.1c.8.1 1.5.1 2.3.2 3 .1 6.1-.4 7.8-2.5.9-1.1 1.5-2.5 2.1-4.1.6-1.5 1.3-3 1.9-4.5 1.2-2.9 2.4-5.8 3.4-8.5 2.1-5.5 3.8-10.5 5.2-14.7.7-2.1 1.2-4.1 1.7-5.8.2-.8.5-1.7.6-2.3.1-.7-.5-1.2-1.1-1.5-2.1-1.3-3.3-2-3.3-2s1.2.7 3.4 1.8c.3.1.6.3.8.6.3.2.5.7.5 1.1 0 .8-.2 1.6-.4 2.5-.3 1.7-.7 3.7-1.2 5.9-1 4.4-2.2 9.6-4 15.2-.9 2.8-1.9 5.8-3 8.8-.6 1.5-1.2 3-1.8 4.6-.6 1.5-1.3 3.2-2.5 4.8-1.3 1.6-3.2 2.7-5 3.1-1.8.5-3.6.5-5.3.4-.8-.1-1.7-.2-2.5-.3-.4-.1-.8-.1-1.2-.2s-.8-.1-1.2-.2c-.5-.1-1-.3-1.5-.7s-.8-.9-1.1-1.3c-.2-.4-.4-.8-.5-1.1-.1-.4-.3-.7-.4-1.1-1.1-2.8-1.9-5.5-2.6-8.1-.7-2.5-1.3-4.9-1.9-7-1.2-4.3-2.1-7.8-2.7-10.2-.8-2.4-1.2-3.7-1.2-3.7"/><path d="M551.5 569.9c-.1.1-.2.3-.4.8-.3.5-.7 1.3-1.4 2.2s-1.6 1.9-2.8 2.9-2.8 2-4.5 2.9c-1.8.9-3.8 1.8-6 2.6s-4.5 1.7-6.9 2.6c-1.2.4-2.5.9-3.8 1.4-.6.2-1.3.5-1.9.7l-1.8.6c-.7.2-1.3.4-2 .6l-.5.1h-.1v-.5l.1-1c0-.7.1-1.4.1-2.1.1-.8.1-1.6.2-2.4.1-1.5.2-2.9.2-4.4.3-6 .5-11.6.7-16.8.1-5.2.3-9.9-.2-13.7q-.45-2.85-1.2-5.1c-.5-1.5-1.1-2.7-1.6-3.6-.5-1-1-1.7-1.4-2.1-.3-.5-.5-.7-.5-.7.1.1.2.3.6.7s.9 1.1 1.5 2 1.3 2.1 2 3.5 1.3 3.2 1.8 5.1c.5 2 .8 4.1 1 6.5.2 2.3.4 4.8.5 7.4.2 5.2.3 11-.1 17l-.3 4.5c-.1.6-.1 1.3-.2 1.9l.2-.1c.7-.2 1.3-.4 2-.6 1.3-.4 2.6-.8 3.8-1.1 2.5-.7 4.9-1.4 7.1-2s4.3-1.2 6.1-2c1.8-.7 3.4-1.5 4.7-2.3s2.3-1.7 3-2.5 1.2-1.5 1.5-2c.3-.7.4-.9.5-1M487.5 524.5c.1.1-.6 1.6-2 4.4-1.4 2.7-3.6 6.7-6.4 11.4-.7 1.2-1.4 2.4-2.1 3.7s-1.3 2.7-1.9 4.2q-1.95 4.5-3.9 9.6c-1.3 3.4-2.6 7-4 10.7l-2.1 5.7c-.7 2-1.4 3.9-2.1 5.9-.4 1.2-.8 2.3-1.2 3.5-5.2-7.2-10.2-14-14.7-20.2-4.2-5.7-7.9-10.9-11-15.3s-5.6-7.9-7.2-10.4c-1.7-2.5-2.5-3.9-2.4-4s1.2 1.2 3 3.5c1.9 2.3 4.5 5.8 7.7 10 3.2 4.3 7.1 9.3 11.3 15 3.9 5.2 8.1 11 12.6 17 .7-2 1.4-3.9 2.1-5.8l2.1-5.7c1.4-3.7 2.8-7.3 4.1-10.7 1.4-3.4 2.7-6.6 4.1-9.6.7-1.5 1.4-2.9 2.1-4.3s1.5-2.6 2.3-3.8c3-4.6 5.3-8.5 6.9-11.1 1.6-2.3 2.6-3.8 2.7-3.7M366.8 522.6c-5.6 12.5-12.4 27.3-19.1 44-1.7 4.2-3.3 8.4-4.9 12.8s-3 8.9-4.2 13.3c-.3 1.1-.5 2.2-.7 3.3-.1.5-.2 1-.2 1.6-.1.5-.2 1.1-.2 1.5l-.1 1.4v1.9c0 1.2 0 2.5.1 3.8.1 5.1.2 10.2.3 15.5 1 41.9 1.6 79.8 1.4 107.3v2.7l-8.3.3c-.1-.9-.1-1.8-.2-2.7-1.9-27.4-3.9-65.4-4.9-107.3l-.3-15.6v-5.8l.2-2.4c0-.8.2-1.5.3-2.2s.2-1.5.4-2.1c.3-1.3.6-2.7.9-4 1.4-5.1 3-9.8 4.8-14.4 1.8-4.5 3.6-8.9 5.4-13.1 7.4-16.8 15.1-31.4 21.7-43.5 13.3-24.2 22.9-38.4 24.3-37.6 1.5.7-5.4 16.3-16.7 41.3M197.5 516.5c.1 0 .3.3.8.9s1.2 1.4 2.2 2.1c.1.1.3.2.4.3.2.1.3.1.5.2.3.2.7.2 1 .3.7.1 1.5 0 2.2-.3 1.4-.7 2.6-2.3 2.9-4.2.4-1.9-.5-3.6-1.9-4.5-.7-.5-1.4-.7-2.2-.8-.7-.2-1.4-.2-2.1-.1-1.3.1-2.3.5-2.9.8-.7.3-1 .6-1 .5 0 0 .2-.4.8-.9.6-.4 1.6-1 3-1.2.7-.1 1.5-.1 2.3 0s1.7.3 2.5.9c.8.5 1.5 1.3 2 2.3s.6 2.1.3 3.2c-.3 2.2-1.7 4.1-3.5 4.8-.9.4-1.9.4-2.7.3-.4-.1-.8-.2-1.2-.4-.2-.1-.4-.2-.5-.2-.2-.1-.3-.2-.4-.3-1.2-.8-1.8-1.8-2.2-2.4-.2-.9-.4-1.3-.3-1.3M811 565c.1-.1.5.3 1 1 .6.6 1.4 1.6 2.6 2.4.6.4 1.3.6 2.1.8.8 0 1.6-.1 2.3-.5.8-.4 1.4-1.1 1.9-2s.9-1.9 1-2.9c.4-2-.7-4-2.1-5-.4-.2-.7-.4-1.2-.6-.2-.1-.4-.1-.6-.2-.2 0-.4-.1-.6-.1-.8-.1-1.6 0-2.2.2-1.4.4-2.4 1.2-3 1.7-.7.5-1 .9-1.1.8s0-.6.6-1.3c.5-.7 1.5-1.8 3.1-2.5.8-.4 1.8-.6 2.8-.6.3 0 .5 0 .8.1.3 0 .5.1.8.2.5.1 1.1.4 1.6.7 1 .6 2 1.6 2.5 2.8.6 1.2.8 2.6.6 4-.1 1.3-.6 2.6-1.3 3.7s-1.6 2-2.7 2.6-2.3.7-3.4.6c-1.1-.2-2-.7-2.7-1.2a8.84 8.84 0 0 1-2.5-3.1c-.3-1-.4-1.5-.3-1.6M222.7 452.8c-.1.1-1.1-1-2.6-3.1s-3.7-5.2-6.1-9.2c-1.2-2-2.5-4.2-3.5-6.9s-1.2-5.7-1.6-8.8c-.3-3.1-.6-6.3-.5-9.8 0-1.7.3-3.4.2-5 0-1.6-.4-3.1-1.4-4.1s-2.6-1.3-4-1.1c-1.5.2-2.8 1-3.7 2.1-1 1.1-1.6 2.5-2 4-.4 1.4-.5 2.9-.5 4.4 0 3 .3 5.9.4 8.7s0 5.3-.2 7.7c-.1 2.3-.4 4.4-.6 6.3-.2 1.8-.6 3.4-1 4.7-.9 2.6-2.1 3.6-2.1 3.5-.1-.1.8-1.2 1.4-3.7.3-1.2.5-2.8.6-4.6s.3-3.9.3-6.2c.1-2.3 0-4.8-.1-7.5s-.5-5.6-.6-8.7c0-3.1.5-6.8 3-9.7.6-.7 1.3-1.3 2.2-1.8s1.8-.8 2.8-1c1.9-.3 4.1.1 5.7 1.7.8.8 1.3 1.7 1.6 2.7s.4 1.9.4 2.8c0 1.8-.2 3.5-.3 5.2-.1 3.3.1 6.4.4 9.5s.5 5.9 1.3 8.4 2.1 4.7 3.2 6.7c4.2 7.9 7.5 12.7 7.3 12.8"/><path d="M195.8 433.2c-.1.1-1.3-.8-3.4-2.5s-5.1-4.2-8.6-7.6c-1.8-1.7-3.6-3.6-5.4-5.9s-3.4-5-4.5-8.2c-.5-1.6-.9-3.3-1.1-5s-.4-3.3-.9-4.8c-.5-1.6-1.2-3.1-2-4.7s-1.7-3.1-2.6-4.7c-1.8-3.1-3.8-6.1-5.8-9-1-1.4-2-2.8-3-4.1s-2-2.6-3.1-3.6-2.3-1.9-3.5-2.2c-1.3-.4-2.6-.3-3.7.2s-1.8 1.4-2 2.5c-.3 1.1-.1 2.3.1 3.4s.6 2.2 1 3.2.7 2 1.1 2.8c.7 1.8 1.4 3.2 2 4.4 1.2 2.4 1.9 3.7 1.8 3.8s-1.1-1.1-2.5-3.4c-.7-1.2-1.5-2.6-2.3-4.4-.4-.9-.8-1.8-1.2-2.8q-.6-1.5-1.2-3.3c-.3-1.2-.5-2.6-.3-4.1.3-1.5 1.3-3 2.8-3.7s3.2-.8 4.9-.4c1.7.5 3.1 1.4 4.3 2.6s2.3 2.5 3.3 3.8 2.1 2.7 3.1 4.1c2 2.8 4 5.9 5.9 9.1l2.7 4.8c.8 1.6 1.6 3.3 2.2 5 .5 1.8.7 3.6.9 5.2.1.8.2 1.6.4 2.4.1.4.2.8.2 1.1.1.4.2.7.3 1.1.9 2.9 2.4 5.5 4 7.7s3.4 4.2 5 5.9c3.3 3.4 6.2 6.1 8.1 8q3 3.15 3 3.3M180.2 430.8c0-.1.1-.1 0 0 .1-.1 0-.1 0-.2 0 .1 0 .1-.4.2-.7.1-1.6.2-2.8.3s-2.6.2-4.1.3c-.8.1-1.6.1-2.4.2s-1.7.1-2.5.2-1.5.3-2.1.7c-.6.3-.9.8-1.3 1.4-.7 1.3-1.4 2.6-2 3.6-.3.5-.6 1-.8 1.4-.3.4-.6.8-.9 1s-.7.3-.9.2c-.2 0-.3-.1-.3-.2s.4-.2.7-.6c.2-.2.3-.5.5-.9s.3-.9.6-1.5c.4-1.1 1-2.4 1.6-3.8.2-.4.4-.8.7-1.2s.7-.8 1.1-1c.9-.6 1.9-.9 2.8-1 1-.2 1.9-.2 2.7-.2.9 0 1.7-.1 2.5-.1 1.6 0 3 .1 4.2.2s2.1.2 2.8.4c.2 0 .3.1.5.1.1 0 .2.1.2.2.1.1 0 .3 0 .3-.1.1-.2.2-.3.2z"/><path d="M196.8 494.1c0 .1-.9 0-2.7-.2-1.7-.3-4.3-.7-7.4-1.8-3.2-1-6.9-2.7-11-5.1s-8.5-5.5-13-9.3c-4.6-3.8-9.4-8.2-14.2-13.1-1.2-1.2-2.4-2.5-3.7-3.9-1.2-1.3-2.6-2.8-3.3-4.7-1.4-3.8-.7-7.8-1.5-11.4-.2-.9-.4-1.7-.9-2.5-.2-.4-.5-.7-.7-1.1l-1-1.1c-.4-.4-.7-.9-1-1.6-.2-.7-.2-1.3-.1-1.9.2-1.2.6-2.1.9-3.1 1.4-4 3.5-7.6 5.7-11.3s4.4-7.3 5.9-11.3c.8-2 1.3-4.1 1.6-6.2s.3-4.3.4-6.6.3-4.6 1-6.9c.4-1.1 1.1-2.4 2.3-3.2 1.3-.8 2.8-.6 3.9-.3 1.2.3 2.2.8 3.2 1.3s2 1.2 2.9 1.9c1.8 1.5 3.2 3.5 3.9 5.7.6 2.2.6 4.5.3 6.6s-.6 4.1-.9 6.2c-.7 4-1.5 8-2.7 11.8-.6 1.9-1.3 3.7-2 5.5s-1.5 3.5-2.1 5.2-1.1 3.4-1.3 5.1-.2 3.4.2 5 1.1 3 2.1 4.1c1 1.2 2.3 2 3.7 2.8 2.7 1.5 5.7 2.5 8.4 3.6s5.3 2.2 7.8 3.1c2.5 1 4.8 1.9 6.9 3.1 2.1 1.1 4 2.3 5.5 3.7s2.6 3 3.3 4.5c.7 1.6 1 3 1.2 4.3s.4 2.3.5 3.2c.3 1.7.7 2.5.6 2.6 0 0-.5-.8-1-2.5-.2-.8-.5-1.9-.7-3.1-.3-1.2-.6-2.7-1.3-4.1s-1.8-2.9-3.2-4.2c-1.5-1.3-3.3-2.4-5.4-3.4s-4.4-1.9-6.9-2.9-5.1-2-7.9-3c-1.4-.5-2.8-1.1-4.2-1.6-1.4-.6-2.9-1.2-4.4-1.9-1.5-.8-2.9-1.7-4.2-3.1-1.2-1.3-2.1-3-2.5-4.8-.9-3.6-.2-7.5 1.1-11 .6-1.8 1.4-3.5 2.1-5.3.7-1.7 1.4-3.5 1.9-5.4 1.1-3.7 1.9-7.6 2.5-11.6.3-2 .7-4.1.9-6.1s.2-4-.3-5.9c-1-3.7-4.8-6.4-8.6-7.5-.9-.2-1.8-.2-2.5.1-.6.4-1.1 1.2-1.5 2.1-.6 1.9-.8 4.1-.9 6.3s-.1 4.5-.4 6.8-.9 4.5-1.7 6.6c-1.6 4.2-3.9 8-6.1 11.6s-4.2 7.2-5.6 11c-.3.9-.7 1.9-.8 2.7-.1.9.1 1.3.6 2 .3.3.6.7 1 1.1.3.5.7.9.9 1.4.6 1 .9 2 1.1 3 .4 2 .4 4 .5 5.9s.3 3.7.8 5.3c.6 1.6 1.7 2.9 2.9 4.2l3.6 3.9c4.8 5 9.5 9.4 13.9 13.2 4.5 3.8 8.7 7 12.7 9.4s7.6 4.1 10.7 5.3c6.5 2.4 10.2 2.6 10.2 2.8"/><path d="M142.5 455.5s0-.2-.2-.4c-.1-.1-.2-.3-.4-.3-.2-.1-.4-.1-.7-.1-.7 0-1.5-.3-2.2-.9s-1.4-1.6-1.9-2.6c-.5-1.1-1-2.3-1.6-3.6-.3-.7-.6-1.3-.9-2s-.7-1.4-1.1-2.2c-1.5-3-3.5-6.2-5.9-9.6-4.8-6.9-11.4-14.4-18.9-22.7-1.9-2.1-3.8-4.2-5.7-6.4-2-2.2-3.9-4.4-6.2-6s-5.3-2.1-8.4-2.9c-1.6-.4-3.2-.9-4.7-1.8s-2.8-2.2-3.7-3.6c-1-1.5-1.6-3.1-1.8-4.9 0-.5-.1-1 .1-1.5.1-.5.4-1 .7-1.4.6-.8 1.2-1.3 1.8-1.9 2.6-2.2 5.6-3.5 8.7-4.1s6.3-.6 9.3-.1 5.8 1.5 8.4 2.6c2.6 1.2 5 2.4 7.3 3.9 1.1.7 2.2 1.6 3.2 2.5l2.7 2.7c3.6 3.5 6.7 6.9 9.4 10.3 1.3 1.8 2.2 3.6 3.3 5.1s2.2 2.9 3.3 4.1c2.2 2.5 4.1 4.7 5.4 6.8 1.2 2.1 1.8 3.9 2.1 5.1.2 1.2.2 1.9.1 1.9-.2.1-.2-2.7-2.8-6.6-1.3-1.9-3.2-4-5.5-6.5-1.1-1.2-2.4-2.6-3.5-4.1-1.2-1.6-2.1-3.3-3.4-5-.6-.8-1.4-1.6-2.1-2.4s-1.5-1.6-2.3-2.5c-.4-.4-.8-.8-1.2-1.3-.4-.4-.8-.8-1.3-1.2-.9-.8-1.7-1.7-2.6-2.6s-1.8-1.7-2.7-2.6-1.9-1.6-3-2.3c-2.2-1.4-4.6-2.6-7.1-3.7-5-2.1-10.8-3.5-16.5-2.3-2.8.6-5.6 1.8-7.8 3.7-.5.5-1.1 1-1.5 1.5s-.4.9-.4 1.6c.2 1.4.7 2.8 1.5 4s1.9 2.3 3.1 3c1.2.8 2.7 1.2 4.1 1.6 1.5.4 3 .7 4.6 1.1 1.5.4 3.1 1.1 4.4 2 2.7 1.8 4.6 4.2 6.6 6.4 1.9 2.2 3.8 4.3 5.7 6.4 7.4 8.4 14 16.1 18.7 23.2 2.4 3.5 4.3 6.9 5.8 9.9.4.8.7 1.5 1 2.2l.9 2.1c.5 1.3 1 2.6 1.4 3.6.5 1 1 1.9 1.6 2.5s1.3.9 1.9 1c.3 0 .6.1.9.2.2.1.4.3.4.5-.3.4-.4.6-.4.6"/><path d="M151.5 406.5c0 .1-.2 0-.6-.1-.2-.1-.5-.2-.7-.3-.3-.2-.6-.3-.9-.5-1.4-.8-3.3-2.2-5.5-3.9-4.5-3.5-10.4-8.6-17-14.1-3.3-2.8-6.4-5.4-9.3-7.7s-5.6-4.2-8.2-4.8c-1.3-.3-2.5-.2-3.4.1-1 .3-1.8.8-2.3 1.3-1.1 1-1.6 1.8-1.7 1.7-.1 0 .1-1 1.1-2.3.5-.6 1.3-1.3 2.5-1.8 1.1-.5 2.6-.7 4.1-.4 1.5.2 3.1.8 4.6 1.7 1.5.8 3 1.9 4.5 3 3 2.2 6.2 4.9 9.5 7.6 6.6 5.6 12.4 10.8 16.6 14.6 2.1 1.9 3.8 3.4 5.1 4.3.3.2.6.5.8.7s.4.3.6.4c.1.3.2.4.2.5"/><path d="m331 731.9 8.3-.3 167.9-5.3 3.9-.1 112.1-3.6 5.1-.1" class="st10"/><path d="m410 555-5.1 3.9-.3.3-.5.4h-.1l-3-.6-1.5-5.5-1.2-.6c.5.1 1 .2 1.5.2l3.5.6z"/><path d="M371 376s10 17 9 17-4 1-4 1h-11c-1 0-11 11-11 11l-7 22 7 30s15 16 15 17 27 10 27 10l22-10s13 20 14 20 32 19 32 19l32 12 56 5 45.1-10.8L627 495l14-33 7-43-12-81-6-18-7-36-4-15-9 3-26 2-10 8-20 9-33-1-7 7-10 4-20 6-26-2h-15l-44 3 1 2v10l-1 18 3 11-4 10s-10 9-11 10-16 7-16 7" class="st3"/><path d="m619 269 3.1 10.5 4.4 22.7 6.2 26.6 4.2 6.2 2-20s1-33 1-34-8-16-8-16l-7-5zM376 233l.3-.3L395 219l27-15 36-13 43-10 34-1 37 2 34 13 17 18 7 27-5 18s-6.7 12.6-7.8 12.3C616 270 598 276 596 276s-12-2-12-2l-9.1 7.7-24 9.2L520 289l-3 6-25 12-29-2-9-2s-2.1 2.2-2.6 2.1C451 305 400 309 400 309l-1 19 4 22s-7 15-8 15-12 5-12 6-29 11-29 11l6-12s-17 0-25-4c0 0 13-4 15-30 0 0-14 3-13 0s11-13 15-16l-25-10s-22-11-19-23c0 0 23 13 28 4 0 0-13-3-14-16 0 0 26 16 35-1s-21-3-21-3 14-11 24-16 12-6 9-7-12-6-23 0c8-9 16-10 16-10z" class="st11"/><path d="M360 449c1 0 12 0 15-4s7-6 6-1-7 13-2 13 11-2 11 3 2 7 6 1 10-24-3-38-18-24-26-11-10 37-7 37M377 394s18 7 23 23 4 10 3-5 1-49 4-62 5-35 19-43l-26 3-1 24 4 16s-1 4-2 5-6 9-6 9l-11 6-12 8 7 14z" class="st12"/><path d="M486 308s35-1 45-5 52-24 66-16 23 11 21 25 14 18 14 18l-6-29-6-27-1-6-7 6-16 2-12-2-5 5-13 7-18 5-26-2-4 5-16 10z" style="fill:#eeaf7a"/><path d="M352 438s10 38 48 42l-5 5-34-14-9-16-3-13z" class="st12"/><path d="M421 469s-10-9-3-35c4 0 16 7 17 19s-2 27 11 32 27 16 32 17 31 3 47 4 45 1 62-7 50-43 50-43-2 32-20 46-57 27-80 26-85-7-98-27-18-32-18-32" style="fill:#f1b17e"/><path d="M558 466s1 7 13 6 18-10 18-10l-16-1-13-1zM443 374s-6 14 8 15c0 0 17 57 39 50l-19-19-14-37-15-10z" class="st15"/><path d="M492.9 211c5.6-.3 11.2-.3 16.8-.3 7.5.1 15.2.1 22.2 3.1 2.3 1 4.5 2.3 6.7 3.6 16.9 10.2 32.7 22.1 47.3 35.5 1.7 1.6 3.7 3.3 6 3 1-.1 1.8-.6 2.7-1.1 8.5-5.4 12.9-15.1 17-24.2 1.2-2.8 1.7-10.4 1.5-13.4-.3-3.5-2-11.4-2-15 8.5 8 15.1 27.6 18.6 38.7.7 2.2 1.3 4.4 1.3 6.7 0 7.9-7.1 13.9-13.8 18.2-8.7 5.6-19.3 10.6-29.1 7.1-7-2.5-11.9-8.7-17.8-13.1-3.6-2.7-7.7-4.7-11.4-7.1-7.3-4.9-13.4-11.4-20.3-16.9a79.9 79.9 0 0 0-29.7-14.5c-5.8-1.5-11.8-2.2-17.8-2.9-9.7-1.1-19.5-2-29.3-1.3-2.7.2-5.4.6-8.1 1 1-.5 2.4-.6 3.5-.9 1.3-.3 2.5-.6 3.8-.9 2.6-.6 5.1-1.1 7.7-1.7 5.1-1 10.2-2 15.4-2.6 2.9-.6 5.8-.9 8.8-1" class="st16"/><path d="M433.4 237.5c-5.6-4.5-12.7-7-19.9-7.2 10.4.4 20.7.8 31.1 1.2 3.5.1 7 .3 10.4 1.1 2.9.8 5.7 2 8.5 3.3 10.8 5 21.7 10 31.5 16.7 5.1 3.5 10 7.4 15.8 9.7 4.7 1.9 9.8 2.6 14.9 3.1 13.3 1.3 28 .4 38-8.4 3.9 6.4 10.5 11.1 17.8 12.6.7.1 1.4.3 1.9.8.7.7.7 1.8.4 2.8-1 2.8-3.8 4.3-6.5 5.5-30.5 13.4-67.4 11.3-96.2-5.5-5.6-3.2-10.8-7-16.3-10.4-10.9-6.8-22.6-12.4-34.7-16.8-6.7-2.5-13.7-4.7-20.9-5.1-1.1-.1-2.3 0-1.7-1.5.6-1.3 2.1-1.5 3.3-1.8 3.5-.8 7-1.3 10.6-1.3q6.15 0 12 1.2" class="st16"/><path d="M372 266.4c5.8-4.1 13.1-5.6 20.2-6.5 10-1.3 20.6-1.7 30 1.9 13.3 5.1 23.4 17.7 37.4 19.8 3.6.5 7.3.3 11 .1 4.6-.3 9.5-.7 13.5-3.2 1.4-.9 2.7-2.1 4.4-2.2 1.3-.1 2.5.4 3.6 1 9.1 4.2 18.3 8.4 27.4 12.7 0 3.5-3.4 5.9-6.5 7.5-18.6 9.4-41.4 9.8-60.6 1.8-3.7-1.5-7.2-3.4-10.3-5.9-2.1-1.7-3.9-3.8-5.8-5.7-4.2-4-9.3-7.1-14.3-10.2-4.4-2.7-8.9-5.3-13.9-6.3-12.2-2.4-23.8 5.6-36.1 7.1-2.4.3-4.9.4-7.3.7-1.2.1-2.4.3-3.6.5-.4.1-2.8 1-3.1.9-.8-.6 3-3.4 3.4-3.8 1.7-1.6 3.3-3.3 4.9-5 1.8-1.9 3.6-3.7 5.7-5.2" style="fill:#bc900a"/><path d="M341 309.7c3 .4 6.1.6 9.1.1 3.1-.4 6.1-1.5 9-2.6 10.7-4.3 20.6-10.3 31-15.3 10.4-4.9 21.7-8.7 33.2-7.9.7.1 1.5.1 2.1.5.8.5 1.1 1.5 1.6 2.3.9 1.6 2.3 2.8 3.9 3.6 1.6.7 3.8 1.8 3.1 3.4-.3.6-.9.9-1.5 1.2-8.6 3.8-18 5.3-26.6 9.1-5.1 2.3-9.8 5.3-15 7.5-11.4 4.8-24.2 5.2-36.5 5.4-5.5.1-11.3.2-16.2-2.2-3.8-1.8-6.9-4.9-10.8-6.4-2.4-.9-5-1.2-7.3-2.3-1.6-.8-1.4-2.1.1-2.9 1.9-1 3.7.8 5.3 1.6 2.3 1.1 4.6 2.1 7 2.9 2.8 1 5.6 1.6 8.5 2" style="fill:#b9900c"/><path d="M394.7 305.4c8.7-3 15.8-9.5 24.3-12.9 2.8-1.1 5.8-1.9 8.8-1.8 5.6.1 10.7 3.1 15.5 6.1 3.4 2.1 7 4.4 8.4 8.2-15.7-.8-31.7-1.6-46.9 2.5-3.6 1-7.2 2.3-10.8 3.3-3 .8-6.1 1.5-9.1 2-1.5.3-3.1.5-4.6.6-1.3.2-3.3.7-4.6.4-.8-.2-.8-.9-.5-1.6.4-1 1.3-1.5 2.3-1.9 2.5-1.2 5.2-1.9 7.9-2.5 3-.8 6.2-1.4 9.3-2.4M380.7 321.6c1.7-1.8 3-4 4.7-5.8s4.1-3.3 6.6-2.9c.9 1.9 1.9 4.2.9 6.1-.4.8-1.2 1.5-2 2-2.1 1.7-4.3 3.4-6.4 5.1-.8.6-1.6 1.3-2.4 1.9-3 2.2-6.4 4-9.9 5.3-3.2 1.2-7.2 2.5-10.6 2.3-2.3-.1-.1-2.3.7-3 2-1.8 4.4-3.3 6.9-4.3 4-1.6 8.4-3.5 11.5-6.7M349.5 355.5c1.4-3.5 2.9-7.2 5.9-9.5 2.1-1.6 4.7-2.3 7.2-3 13.1-3.9 25.8-10.7 33.5-22 .5 5-2 9.8-4.5 14.2-1 1.8-2 3.5-3.4 4.9-2.2 2.2-5.2 3.4-8 4.6-5.6 2.4-11 5.1-16.3 8.1-2.6 1.5-5.3 3.1-7.8 4.8-1.3.8-2.5 1.7-3.8 2.6-1.2.9-2.4 2-3.7 2.7-.5.3-1 .4-1.4-.2s0-1.3.3-2c.6-1.7 1.3-3.4 2-5.2" class="st19"/><path d="M631.4 265.9c.6 1.4.6 2.9.6 4.4-.2 4-1.2 8-1.9 12q-.9 4.65-1.2 9.3c-.3 4.2-.3 8.6.9 12.6 1.1 3.8 3.1 7.3 4.1 11.2 1.7 7.1-.5 15 2.8 21.4-1.4-1.8-2.6-3.8-3.5-5.9-2.9-6.3-4.3-13.1-5.4-19.9-1.2-7.8-2-15.7-4.3-23.2-1-3.2-.5-7.6-1.4-10.9-.7-2.4-2.5-6.6-3-9-.4-1.8-1.2-.7-.6-2.5.4-1.2 1.1-2.1 2-3 .7-.7 1.6-1.6 2.6-2s2 .1 2.9.5c1.1.5 2.2 1.1 3.1 1.8 1 1 1.8 2 2.3 3.2" style="fill:#c9a60d"/><path d="M361 355v14l82-1s-5 19 12 18c0 0 9 59 55 59s61-32 65-58c1-2 3-3 6 3s27 59 71 37c22-17 19-52 19-52s7-1 6-11 1-21-16-20-68 4-70 6-6 10-9 10-6 2-9-1-7-10-11-10-112 2-114 3 0 3-7 3z"/><path d="M400.5 309.5c.6.1 0 5 0 12.9 0 3.9.2 8.6.9 13.7.4 2.5.8 5.2 1.5 7.9.2.7.3 1.4.5 2.1.2.8.4 1.7.4 2.5.2 1.7-.1 3.5-.5 5.2-1 3.3-2.9 6.1-5 8.3s-4.3 4.1-6.5 5.7c-4.4 3.2-8.7 5.4-12.4 7.1-7.4 3.4-12.3 4.5-12.4 4-.2-.5 4.3-2.6 11.1-6.6 3.4-2 7.4-4.4 11.5-7.6 2-1.6 4-3.4 5.8-5.4s3.3-4.3 4.1-6.8c.3-1.3.6-2.5.4-3.7 0-.6-.2-1.2-.3-1.8-.2-.7-.3-1.4-.5-2.2-.7-2.9-1.1-5.7-1.4-8.4-.5-5.4-.4-10.2 0-14.3.7-7.9 2.3-12.7 2.8-12.6"/><path d="M462 306c0 .4-2.4.6-6.6.6-2.1 0-4.7-.1-7.6-.1h-7.3c-.9 0-1.8.1-2.7.1-1.9.1-3.8.1-5.8.2-1 0-2 .1-3.1.2-1 .1-2.1.2-3.2.2-1.1.1-2.2.2-3.3.2-1.1.1-2.2.3-3.4.4-2.3.3-4.7.5-7.1 1l-3.6.6c-1.2.2-2.5.5-3.7.7-1.2.3-2.5.5-3.8.8s-2.5.6-3.8 1c-5.1 1.3-10.4 2.9-15.8 4.7-5.5 1.7-10.9 3.5-16.5 4.4-1.4.2-2.8.5-4.2.6-.7.1-1.4.1-2.1.2s-1.4.1-2.1.1c-2.8 0-5.6-.3-8.2-.9-5.2-1.1-9.7-3.1-13.8-5.2s-7.6-4.4-10.7-6.6c-6.2-4.5-10.7-8.7-13.6-11.8s-4.2-5.1-4-5.4c.3-.3 2.2 1.1 5.5 3.6s8.1 6.1 14.4 10c3.1 1.9 6.6 3.9 10.5 5.7s8.1 3.4 12.7 4.2c2.3.4 4.6.7 7 .6.6 0 1.2 0 1.8-.1s1.2-.1 1.9-.2c1.2-.1 2.5-.4 3.8-.6 5.1-.9 10.3-2.6 15.7-4.3 5.4-1.8 10.9-3.4 16.2-4.7 1.3-.3 2.7-.6 4-.9s2.6-.5 3.9-.8c1.3-.2 2.6-.5 3.9-.7s2.6-.3 3.8-.5c2.5-.4 5-.5 7.3-.7 1.2-.1 2.4-.2 3.5-.3 1.2 0 2.3-.1 3.4-.1s2.2-.1 3.3-.1 2.1-.1 3.2 0c2.1.1 4.1.1 6 .2.9 0 1.9 0 2.8.1s1.8.2 2.6.2c1.7.2 3.3.3 4.8.4 3 .2 5.5.7 7.6 1.1 4.2.9 6.4 1.5 6.4 1.9"/><path d="M524.3 287.1c.3.2-1.3 3-5.4 7-1 1-2.2 2-3.6 3.1-1.4 1-2.9 2.2-4.6 3.3-3.4 2.2-7.6 4.3-12.5 6s-10.4 2.9-16.5 3.3c-3 .2-6.2.1-9.5-.1-3.2-.3-6.5-.9-9.9-1.7-3.3-.9-6.7-1.9-10-3.3s-6.6-3.1-9.8-5c-6.4-3.8-12.5-8.9-17.6-14.7-2.6-2.8-4.9-5.5-7.6-7.2-2.6-1.7-5.8-2.7-9-3-6.5-.7-12.9 1-19.1 2.9-6.2 2-12.2 4.1-18 5.5-5.8 1.5-11.4 2.4-16.5 2.6-10.4.5-18.7-1.9-23.7-4.6-5.1-2.7-7.2-5.2-7-5.5.3-.4 2.8 1.5 7.9 3.3 5 1.9 12.9 3.5 22.5 2.5 4.8-.5 10-1.6 15.5-3.2s11.3-3.7 17.6-6c3.2-1.1 6.5-2.1 10.1-2.8s7.4-1.1 11.4-.7c3.9.4 8 1.6 11.6 3.9s6.3 5.4 8.8 8.2c9.7 11 22.2 18.4 34.4 21.7 12.2 3.4 24 2.5 33.2-.2 4.6-1.3 8.7-3 12.1-4.8 1.7-.9 3.2-1.8 4.7-2.7 1.4-.9 2.7-1.7 3.7-2.6 4.2-3.3 6.4-5.5 6.8-5.2"/><path d="M584.8 273.2c.2.2-1.8 3.1-6.8 7-2.5 2-5.7 4.1-9.7 6.2s-8.8 4-14.4 5.4c-2.8.7-5.7 1.3-8.8 1.6s-6.4.5-9.8.3c-6.7-.3-13.9-1.5-21.1-3.6s-14.5-5.1-21.8-8.7c-7.3-3.5-14.5-7.5-21.9-11.6-7.4-4-14.7-7.7-21.9-11s-14.3-6.2-21-8.6c-6.8-2.5-13.3-4.4-19.6-5.4-6.2-1-12.1-1.2-17.4-.5s-10 2.1-14 3.6-7.4 3.1-10.2 4.4c-5.5 2.8-8.4 4.6-8.6 4.3s2.2-2.8 7.5-6.3c2.6-1.7 6-3.7 10.1-5.5s9-3.6 14.7-4.6 12.1-1.1 18.7-.2c6.7.9 13.6 2.7 20.6 5.1s14.3 5.2 21.6 8.5c7.4 3.2 14.8 7 22.3 11.1 7.5 4 14.6 8.1 21.7 11.6 7 3.5 14 6.5 20.8 8.7s13.5 3.5 19.7 4c3.1.2 6.2.2 9.1 0s5.7-.6 8.3-1.1c10.6-2.1 18.5-6.3 23.7-9.4 5.2-3.4 7.9-5.7 8.2-5.3"/><path d="M354 241c-.1-.2 1.8-1.1 5.5-2.5s9.2-3.3 16.4-5.5 16-4.7 26.4-7.2c10.4-2.4 22.3-4.9 35.7-6.7 13.3-1.8 28.1-3.2 44.1-2.7 8 .3 16.2 1 24.6 2.6s17 4.1 25.2 8.2c4.1 2 8.1 4.4 11.9 7.3.9.7 1.8 1.5 2.8 2.2l2.7 2.4c.9.8 1.7 1.7 2.6 2.6.8.9 1.5 1.7 2.3 2.6 6.1 6.8 12.8 13.3 20.4 18.7 3.8 2.7 7.8 5 12.1 6.8 4.2 1.7 8.7 2.7 13.2 2.6 2.2-.2 4.4-.4 6.5-1.2l.8-.3c.3-.1.5-.2.8-.3.5-.2 1-.4 1.5-.7 1-.6 2-1.1 2.9-1.8 1-.6 1.8-1.4 2.7-2.1.8-.8 1.7-1.6 2.4-2.5 1.5-1.7 2.9-3.7 4.1-5.7 1.2-2.1 2.2-4.2 3-6.4l.6-1.7.5-1.7c.1-.6.2-1.1.4-1.7.1-.5.2-1.1.2-1.6 0-.6 0-1.1.1-1.7v-1.8c0-1.2-.1-2.4-.2-3.6-.2-2.4-.5-4.7-1-7-1-4.6-2.6-9-4.7-13.2-2.1-4.1-4.8-7.9-8-11.2-3.1-3.3-6.6-6.3-10.4-8.7-3.8-2.5-7.8-4.5-11.9-6.3-8.3-3.4-17-5.5-25.5-6.8-8.6-1.3-17.1-1.9-25.4-2h-6.2c-2 0-4.1.2-6.1.2-4 .2-8 .3-11.9.5-15.6 1.2-30 3.4-43 6.1-13 2.9-24.5 6.4-34.5 9.9-9.9 3.6-18.3 7.3-25 10.6s-11.7 6.2-15.1 8.2-5.1 3.1-5.2 3c-.1-.2 1.4-1.6 4.6-4 3.2-2.3 8.1-5.6 14.7-9.2s14.9-7.7 24.9-11.6 21.6-7.7 34.7-10.9c13.1-3 27.8-5.5 43.6-6.9 4-.3 8-.5 12.1-.7 2-.1 4.1-.3 6.2-.3s4.2 0 6.3-.1c8.5 0 17.2.5 26.2 1.8 8.9 1.3 18 3.4 26.9 7 4.4 1.8 8.8 4 12.9 6.7 4.2 2.7 8.1 5.9 11.5 9.6 3.5 3.7 6.5 7.9 8.9 12.5s4.2 9.5 5.3 14.7c.6 2.6.9 5.2 1.1 7.8.1 1.3.2 2.6.2 4v2c0 .7 0 1.4-.1 2.1s-.2 1.5-.3 2.2-.3 1.4-.4 2l-.5 2-.6 1.9c-.9 2.6-2.1 5-3.4 7.4s-3 4.6-4.8 6.7c-.9 1.1-1.9 2-2.9 3-1.1.9-2.1 1.8-3.3 2.6-1.1.8-2.4 1.5-3.6 2.2-.6.3-1.3.6-1.9.9-.3.1-.6.3-1 .4l-1 .3c-2.6 1-5.4 1.3-8.2 1.5-5.5.2-10.9-1.1-15.7-3.1s-9.2-4.6-13.3-7.5c-8.1-5.8-15-12.7-21.2-19.7-.8-.9-1.6-1.8-2.3-2.6-.8-.8-1.5-1.6-2.3-2.3s-1.6-1.5-2.4-2.2-1.7-1.4-2.5-2.1c-3.4-2.7-7.1-4.9-10.9-6.8-7.6-3.8-15.8-6.3-23.8-7.9-8.1-1.6-16.1-2.5-23.8-2.8-15.5-.7-30.1.4-43.3 1.9-13.2 1.6-25.1 3.7-35.5 5.8s-19.3 4.3-26.5 6.1-12.8 3.4-16.6 4.4c-4.2 1-6.2 1.5-6.3 1.3"/><path d="M637.2 335.1c-1.7-.1-2.1-18.5-1.1-40.9.2-5.6.2-10.7-.7-15.1-.4-2.2-1-4.2-1.8-6.1-.8-1.8-1.7-3.4-2.6-4.8-1.9-2.8-4-4.6-5.6-5.7s-2.6-1.7-2.5-2.2c.1-.4 1.3-.6 3.5.1 2.1.6 5.2 2.2 7.9 5.2 1.4 1.5 2.7 3.3 3.8 5.4s2 4.5 2.7 7c1.3 5.1 1.5 10.8 1.3 16.5-1 22.5-3.2 40.6-4.9 40.6M639.1 363.9c-.4 0-.1-5.5-2-14.2-.9-4.3-2.3-9.4-4-15s-3.6-11.8-5.2-18.5c-1.5-6.7-2.4-13.1-3.3-18.9s-1.9-11-2.8-15.3c-1.8-8.7-3.3-14-3-14.1.1 0 .7 1.2 1.5 3.6s1.8 5.8 2.9 10.1 2.2 9.5 3.2 15.3 2 12.2 3.5 18.8 3.4 12.7 5 18.4 2.9 10.9 3.6 15.3 1 8.1.9 10.6c0 2.5-.2 3.9-.3 3.9M578 442c-.1-.2.5-.9 1.7-2 .6-.5 1.4-1.1 2.2-1.9.8-.7 1.9-1.5 2.9-2.5 2.1-1.8 4.5-4.1 6.8-6.9 1.1-1.4 2.2-2.9 3-4.6.4-.8.8-1.7 1.1-2.6.1-.3 0-.2.1-.2h-.1l-.8-.3c-.5-.2-1.1-.5-1.6-.7s-1-.5-1.5-.7c-.5-.3-1-.6-1.4-.8-1.9-1.1-3.5-2.4-5-3.7-3-2.6-5.2-5.4-6.8-7.9-3.3-4.9-4.3-8.4-3.9-8.7.5-.3 2.4 2.7 6.1 6.9 1.8 2.1 4.1 4.5 6.9 6.8 1.4 1.1 2.9 2.2 4.6 3.2.4.2.8.5 1.3.7.4.2.9.4 1.3.6.5.2.9.4 1.4.6.7.2 1.4.5 2.1.7.5.2.9.4 1.4.6l.3.2c.1 0 0 .1 0 .2v1.6c0 .3-.1.5-.2.8l-.2.8c0 .1-.1.2-.1.3l-.1.2c-.4 1.2-.9 2.2-1.4 3.2-1.1 2-2.4 3.6-3.7 5.2-2.7 3-5.4 5.2-7.9 6.8-1.2.9-2.4 1.5-3.4 2.1s-1.9 1-2.7 1.3c-1.4.7-2.3.9-2.4.7M593.5 461.3c-.2 1.1-2.6 1.7-6.2 2-1.8.1-4 .2-6.3.3-1.1 0-2.3.1-3.6.1-.6 0-1.2.1-1.9.1-.6 0-1.3.1-2 .1-5.5.3-10.2.6-13 1.2-1.4.3-2.2.6-2.9 1s-1.2 1-1.7 1-1.2-.6-1.1-2.1c.1-.7.4-1.7.9-2.5.6-.9 1.4-1.7 2.3-2.3 3.8-2.7 9.3-3.7 15-4.1.4 0 .7 0 1.1-.1h3.3c1.4.1 2.8.2 4 .3 2.5.4 4.7.9 6.5 1.5 3.7 1 5.8 2.4 5.6 3.5"/><path d="M460.5 387.5h4S474 429 510 442c0 0-30 2-49.5-54.5M585.5 380h4s9.5 36.5 45.5 48c0 0-30 1.8-49.5-48" class="st21"/><path d="M397.5 309.5c.2.1.2 1.1-.2 2.8s-1.4 4.1-3.1 6.8-4.1 5.6-7.4 8.3c-1.6 1.4-3.4 2.6-5.4 3.8s-4.2 2.1-6.6 2.9c-4.7 1.4-9.2 1.9-13.4 2.1-4.1.1-7.8-.1-10.8-.4-6.1-.6-9.8-1.5-9.8-2 0-.6 3.8-.7 9.9-.8 3-.1 6.6-.1 10.5-.5s8.2-.9 12.4-2.2c2.1-.6 4-1.5 5.9-2.5 1.8-1 3.5-2.1 5-3.2 3.1-2.3 5.5-4.8 7.4-7 3.7-4.7 5-8.3 5.6-8.1M400.2 320c.2.1 0 1.2-.7 2.9-.7 1.8-1.8 4.3-3.5 7.2s-4.1 6.5-7.6 9.6c-3.4 3.2-7.8 5.8-12.4 8.1s-9.1 4.3-12.9 6.3c-3.9 2-7.1 4-9.6 6.1-.3.3-.6.5-.9.7-.3.3-.6.5-.8.8-.5.5-1.1.9-1.5 1.4-.9.9-1.8 1.8-2.6 2.4-1.6 1.2-2.9 1.3-2.9 1.1-.1-.3.8-.8 1.8-2.2.6-.7 1.2-1.6 1.9-2.7.4-.6.9-1.1 1.4-1.7.3-.3.5-.6.8-.9l.9-.9c2.4-2.5 5.8-5 9.8-7.2 3.9-2.3 8.4-4.3 12.9-6.6s8.6-4.6 11.8-7.4c3.3-2.6 5.7-5.7 7.6-8.3 1.9-2.7 3.4-4.9 4.5-6.5s1.8-2.4 2-2.2M399.6 339.9c.3.1.1 1-.3 2.6-.5 1.6-1.2 3.8-2.6 6.5-1.3 2.7-3.4 5.8-6.5 8.4-3.1 2.7-7 4.9-11.2 6.5-4.3 1.6-8.4 2.6-12.2 3.4s-7.2 1.3-10 1.8c-5.7.9-9.3 1.2-9.4.6-.1-.5 3.3-1.8 8.8-3.4 2.8-.8 6.1-1.7 9.8-2.6 3.7-1 7.6-2 11.6-3.6 4-1.5 7.5-3.4 10.3-5.6 2.9-2.2 4.9-4.7 6.5-7s2.7-4.3 3.6-5.7c.8-1.3 1.4-2 1.6-1.9M621.1 278.2c-.1-.6 3-1.6 6.5-3.6 3.5-1.9 6.1-4 6.5-3.6.4.3-1.7 3.2-5.5 5.3-3.8 2.2-7.4 2.4-7.5 1.9M638.3 285.6c.2.2-.4 1-1.7 1.7s-3.3 1.2-5.4 1.3c-2.2.1-4-.1-5.4-.2-1.4-.2-2.2-.4-2.2-.7s.8-.5 2.2-.7 3.3-.2 5.3-.4c2-.1 3.8-.3 5-.7 1.2-.2 2-.5 2.2-.3M637.1 295.1c.2.2.1.8-.3 2s-1.7 2.8-3.5 3.7c-1.8 1-3.5 1.3-4.7 1.4s-2 0-2.1-.3.6-.7 1.7-1.1 2.6-.9 4.1-1.7 2.5-1.8 3.2-2.7 1.4-1.5 1.6-1.3M651.3 410.7c-1.3-27.9-6.6-49.8-10.7-64.6-1.1-3.7-2-7-2.9-9.8s-1.8-5.2-2.5-7.1c-1.4-3.8-2.3-5.8-2.6-5.7s-.1 2.2.7 6.2c.4 2 .9 4.4 1.5 7.3s1.3 6.2 2 10c.8 3.7 1.5 7.9 2.3 12.5.9 4.6 1.5 9.6 2.3 14.9 1.4 10.7 2.7 23 2.8 36.5s-1 28.3-4.8 43.5l-.3 1.4c-.1.5-.3.9-.4 1.4-.3.9-.6 1.9-.9 2.8-.6 1.9-1.1 3.8-1.9 5.7-.7 1.9-1.4 3.8-2.2 5.6-.9 1.8-1.7 3.7-2.6 5.5-3.8 7.3-8.5 14.3-14.4 20.5s-13 11.6-21 15.7c-8 4.2-16.8 7.2-26.1 9.1s-19 2.7-28.9 2.5c-9.9-.1-19.9-1.2-30.2-2.7-9.2-1.4-18.2-3.2-26.9-5.6s-17.1-5.2-25-8.8c-7.8-3.7-15.1-8-21.2-13.4-3-2.7-5.8-5.6-8-8.7-1.1-1.6-2.2-3.2-3-4.8l-.6-1.2-.3-.6-.2-.3s-.1-.2-.1-.3l-.2-.2-1-2.9c-.5-2.2-1.2-4.4-2.2-6.5L420 465l-3.2 2.6c-1.8 1.5-3.3 3.2-4.7 5l-1 1.4c-.2.2-.3.4-.5.6l-.3.3-.3.2-.9.8c-.3.3-.7.5-1 .7-1.3 1-2.9 1.6-4.5 2.2-3.2 1.1-6.8 1.4-10.3 1.2s-7.1-1.1-10.4-2.2c-1.7-.5-3.3-1.4-4.9-2-.8-.4-1.5-.8-2.3-1.3l-1.1-.6c-.5-.3-.9-.6-1.4-.9-.6-.4-1.3-.8-1.9-1.3l-2-1.6-1-.8-.9-.9c-.6-.6-1.2-1.2-1.9-1.7-.6-.6-1.1-1.2-1.7-1.9l-.8-.9-.8-1c-.5-.7-1-1.3-1.5-2s-.9-1.4-1.3-2.1c-3.6-5.5-5.8-11.6-6.9-17.6-.6-3-.8-6-.8-8.9 0-1.5.1-2.9.2-4.3.2-1.5.3-2.9.5-4.4.7-5.7 2-11 3.8-15.6 1-2.3 2.1-4.4 3.4-6.2s2.8-3.3 4.5-4.4 3.5-1.8 5.3-2.1c.5-.1.9-.2 1.4-.2l.7-.1h.9c.7 0 1.5.2 2.3.3.4 0 .8.2 1.2.3s.8.2 1.2.4c2.2-.9 3.5-.8 4.7-.5.2.1.4.1.5.2 0-.2-.1-.4-.1-.7-.1-.4-.1-.9-.2-1.3-.1-.9-.3-1.7-.5-2.5q-1.5-2.4-2.7-4.5c-.4-.7-.8-1.3-1.2-2-.3-.5-.6-1-.9-1.4-1.1-1.8-2.1-3.3-2.9-4.5-1.6-2.4-2.6-3.6-2.9-3.4-.3.1.2 1.6 1.4 4.3.6 1.3 1.3 3 2.2 4.9.2.5.5 1 .7 1.5.2.4.3.8.5 1.2.3.7.7 1.5 1.1 2.3.2.5.5 1.1.8 1.7.1.3.3.6.4.8l.2.4c-.2-.1-.4-.2-.5-.3-1.2-.6-2.4-1.1-3.7-1.4-.6-.1-1.2-.2-1.7-.3h-1.5c-.6 0-1.2.1-1.8.1-2.4.3-5 1.1-7.3 2.4-2.3 1.4-4.4 3.2-6.2 5.4-1.7 2.2-3.2 4.6-4.4 7.2-2.4 5.2-3.9 11-4.9 17-.2 1.5-.5 3.1-.7 4.6-.1 1.6-.3 3.3-.4 4.9-.1 3.3 0 6.8.6 10.2 1.1 6.9 3.4 14 7.4 20.5l1.5 2.4c0 .1.1.1.1.2l2.4 3.3 1 1.1.2.3c1.1 1.1 2.8 3 3.8 4.1l1.1 1 1.5 1.3c1.1.9 3 2.3 4.2 3.2.5.3 1 .7 1.6 1.1l1.3.8c.9.5 1.8 1.1 2.7 1.5 1.9.9 3.8 1.9 5.8 2.5 4 1.5 8.2 2.6 12.7 3s9.2.1 13.8-1.4c2.3-.8 4.6-1.8 6.7-3.2.5-.4 1.1-.7 1.6-1.1l1.5-1.2.2-.1c.1-.1.2-.2.2-.3 0 .2 0 .3.1.4 0 .1 0 .1.1.3l.6 1.3c.2.5.5 1.1.8 1.6 1.1 2.1 2.3 4.1 3.7 6 2.7 3.8 5.9 7.2 9.3 10.4 7 6.2 15 11.1 23.4 15.1 8.5 4 17.4 7 26.5 9.5s18.5 4.4 28 5.8c10.5 1.6 21.1 2.7 31.6 2.8s20.9-.8 31-2.9 19.8-5.5 28.6-10.2 16.7-10.8 23.2-17.9c6.5-7 11.7-14.9 15.6-22.9.9-2 1.8-4.1 2.7-6.1.8-2 1.5-4.1 2.3-6.1.9-2.2 1.4-4.4 2-6.6.3-1 .5-1.9.8-2.9l.3-1.2.3-1.5c3.2-16.1 3.9-31.5 3.4-45.5"/></g></svg>